<svg xmlns="http://www.w3.org/2000/svg" viewBox="0 0 245.46 195.2"><defs><style>.cls-1{fill:#292f36;}</style></defs><title>Asset 1</title><g id="Layer_2" data-name="Layer 2"><g id="Layer_1-2" data-name="Layer 1"><path class="cls-1" d="M94.33,34.8c8.62-.13,17.44-.1,26.44.18s18.16.81,27.47,1.74a229.77,229.77,0,0,1,28.28,4.42c2.38.54,4.77,1.14,7.16,1.83s4.79,1.44,7.19,2.32a77.07,77.07,0,0,1,7.17,3,49.59,49.59,0,0,1,7.07,4.11l4.07,2.85-1.13,2.8c-4,9.9-3.93,4.67-4.63,6.48l-.63.19-.29.07-.17,0-.26,0-.18,0-.5.06-.75.09-1.35.13-2.58.23-5.1.44-10.16.9c-6.76.63-13.53,1.31-20.27,2.06-13.48,1.5-26.88,3.27-40,5.46A368.87,368.87,0,0,0,82.91,82.5a159,159,0,0,0-17.58,5.94l-2,.88-.47.22-.2.11a7.9,7.9,0,0,0-.76.43,5.9,5.9,0,0,0-1.24,1A2.32,2.32,0,0,0,60,92.21a1.48,1.48,0,0,0,0,.21c0,.06,0,.15.07.19a1.23,1.23,0,0,0,.54,0c.36,0,.71-.1,1-.16l1.75-.36.2,0,.09,0h.07l.12,0L67,91.69c2.11-.22,4.24-.41,6.4-.54,1.08-.07,2.17-.13,3.27-.17l1.47,0,1.45-.08c2-.11,4-.25,6-.38,8.18-.56,16.5-1.08,24.85-1.43s16.75-.54,25.19-.52,16.92.26,25.42.8,17,1.39,25.58,2.71a177,177,0,0,1,25.56,5.72,116.4,116.4,0,0,1,12.61,4.69c1,.46,2.08,1,3.11,1.44l1.54.78.4.2.29.15.32.17,1.33.76,2.66,1.52c.87.53,1.67,1.1,2.51,1.64,1.71,1.08,3.18,2.27,4.73,3.42.22.14.47.28.67.42l.37.51.74,1,.74,1,.19.25.09.13a.56.56,0,0,1,0,.12l.14.47.57,1.91.07.24h0v.06c0,.12,0,.33.06.53a10.72,10.72,0,0,1,0,1.27,12.56,12.56,0,0,1-1.17,4.82,15.82,15.82,0,0,1-2.79,4.08,23.48,23.48,0,0,1-9.65,5.83c-.48.19-1,.32-1.51.47s-1,.3-1.53.43c-1.06.23-2.1.48-3.16.68l-1.33.21c-.31.06-.65.09-1,.14-.65.08-1.33.17-1.9.21-2.41.24-4.56.37-6.74.54s-4.28.32-6.4.5q-6.34.54-12.59,1.34a353.25,353.25,0,0,0-49.1,10.11c-.1-.34,1.78-1.29,2.68-1.93s.81-1-3.23-.06l-5.67,1.4c-1.78.43-3.42.89-5,1.27l-4.31,1.09-3.69,1c-4.55,1.12-7.6,1.86-9.68,2.23-4.15.73-4.38.09-4.61-.56-.06-.17,1.4-.76,3.49-1.52l3.5-1.23,1.9-.65,1.9-.61c5-1.62,9-2.88,4.88-1.94,1.49-.49,3.07-.95,4.67-1.44l4.94-1.5c3.36-1,6.81-2,10.22-2.9,1.71-.46,3.39-.95,5.05-1.36l4.86-1.25c1.56-.4,3.09-.75,4.53-1.1s2.81-.7,4.08-1c5.1-1.19,8.69-2,9.43-2.23.38-.14,0-.15-1.16,0s-3.29.45-6.38,1c-1,.14-2.48.35-4.18.69s-3.7.75-5.88,1.23-4.53,1.08-7,1.68-5,1.29-7.52,2L137,144.22c-2.42.71-4.75,1.39-6.9,2s-4.1,1.2-5.78,1.66-3.09.79-4.12,1c-4.15.87-2.33-.29-.5-1.46a8.89,8.89,0,0,0,2-1.49c.18-.32-.41-.42-2.49,0l-7.27,2.48-8.71,3.13c-3,1.09-5.93,2.24-8.65,3.26-1.37.51-2.65,1-3.85,1.5l-3.28,1.3c-8.11,2.49,7.1-5.05-.77-1.92-11.94,4.39-25.61,10.17-40,16.92S17.24,187,2.34,195c-.16-.3-2.19.39-2.33.13s.32-.51,1.65-1.36S5.29,191.6,9,189.55c18.2-9.61,36.72-18.75,55.69-27.06a618.3,618.3,0,0,1,58.17-22.42c9.93-3.24,20-6.18,30.15-8.74l3.82-1,3.84-.89c1.28-.29,2.55-.61,3.84-.88l3.86-.82c1.29-.28,2.58-.54,3.87-.79l3.88-.75c2.6-.46,5.19-.95,7.8-1.35,5.21-.85,10.46-1.57,15.72-2.14q3.95-.44,7.89-.78c2.62-.22,5.25-.42,7.8-.61l1.89-.15.93-.07.47,0,.44,0,.88-.09.43,0,.39-.05.77-.1.39-.06.2,0h0a1.78,1.78,0,0,0,.55-.18.71.71,0,0,0,.4-.38.23.23,0,0,0,0-.14s0,0-.06,0l-.06,0-.24-.16c-.13-.07-.26-.15-.39-.21l-1.63-.82-2.54-1.18a100.36,100.36,0,0,0-10.71-4,162.66,162.66,0,0,0-23-5.16c-7.86-1.23-15.85-2-23.9-2.59s-16.14-.81-24.26-.86-16.26.08-24.41.38-16.32.74-24.56,1.25l-6.26.36c-1.07.06-2.13.11-3.31.14l-1.46,0-1.43.06c-1.92.1-3.86.25-5.83.43l-2.95.3-2.34.26-3.05.38-6.12.8c-2,.26-4.08.52-6.06.72a45.86,45.86,0,0,1-5.54.29,15.31,15.31,0,0,1-4.18-.59l-.42-.13-.38-.14c-.26-.09-.48-.19-.72-.29a12.4,12.4,0,0,1-1.21-.66c-.36-.23-.69-.47-1-.71s-.57-.51-.83-.77a9.14,9.14,0,0,1-.74-.87,8.62,8.62,0,0,1-.75-1.19,2.89,2.89,0,0,1-.2-.43l-.09-.24,0-.06s-.07,0,0,0l0-.11a8.09,8.09,0,0,1-.28-.83c-.16-.57-.38-1.1-.56-1.65.18-1.08.31-2.09.5-3.08a20,20,0,0,1,.82-2.91A22.68,22.68,0,0,1,36,90a31.81,31.81,0,0,1,5.44-5.69,52.43,52.43,0,0,1,8-5.36c1.48-.83,3-1.62,4.61-2.37.79-.38,1.58-.74,2.38-1.1l1.5-.65c1.75-.75,3.51-1.44,5.26-2.1,3.52-1.31,7-2.47,10.54-3.54,7-2.12,14.07-3.88,21.11-5.44s14.08-2.9,21.13-4.12c14.09-2.44,28.2-4.36,42.31-6q10.57-1.23,21.16-2.24l10.57-1,5.26-.47,2.58-.24,1.22-.12.5,0h.1l.21,1.42.4,2.6.19,1.13.18,1c.06.31.12.61.19.91s.09.47.15.71.08.36.15.54a.53.53,0,0,0,.13.26l-5,7.15a41.43,41.43,0,0,0-7.08-3.81,75.66,75.66,0,0,0-8.29-3,146.22,146.22,0,0,0-18.07-4.05,332.57,332.57,0,0,0-38-3.74c-6.41-.32-12.85-.5-19.29-.59C102.21,50,99,50,95.76,50H90.91l-5,0-4.53.07-4.93.09-9.88.22a60.83,60.83,0,0,1-9-.29,19.68,19.68,0,0,1-5.85-1.52l-.51-.24-.46-.25-.43-.24c-.13-.09-.28-.17-.4-.26a8.1,8.1,0,0,1-.71-.51c-.24-.17-.44-.36-.65-.54a10.82,10.82,0,0,1-1.11-1.14,10.67,10.67,0,0,1-1-1.34,11.72,11.72,0,0,1-.9-1.84A11.34,11.34,0,0,1,45,39.36c0-.25,0-.5,0-.75s0-.26,0-.39v-.28c-3.07.38,4.18-.57,3.44-.48h0l.08-.5.16-1c.39-2.33.77-4.64,1.16-6.95l1.43-.67,1.46-.65,2.92-1.32,5.82-2.62,1.46-.65c.48-.22,1-.44,1.5-.65l3.15-1.25,6.29-2.49,3.15-1.25,1.6-.6,1.43-.5,3.34-1.17L85,14.61l1.68-.55L90,13c9-2.86,18.12-5.31,27.35-7.27A248.23,248.23,0,0,1,173.76.05c4.4.13,7.85.4,10.48.69l1.82.22,1.53.23c.46.07.88.15,1.25.22l.54.11.54.11c1,.26,1.23.41.94.48a4.4,4.4,0,0,1-.85,0l-1.91-.07c-2.89-.09-7.57-.21-13.16-.07-2.8.05-5.81.21-8.94.38s-6.35.46-9.56.8a48.75,48.75,0,0,1,8.61-.2c2.16.13,4.32.26,8.65.16,0,.25-1.1.53-3.25.83s-5.36.65-9.62,1.14-9.55,1.09-15.87,2S131.32,9.29,123,11c8.32-1.67,16.71-2.9,25.16-3.74,1.06-.07,1.86-.09,2.44-.08a6.43,6.43,0,0,1,1.16.08c.4.09.15.25-.36.45s-1.3.41-1.94.64-1.15.46-1.13.63l-3.13.32-3,.36c-2,.23-3.79.52-5.35.76s-2.85.48-3.75.68-1.41.34-1.4.42l.23,1.36c4.12-.71,10.34-1.57,16.58-2.19s12.52-.94,16.69-1c-8.35.17-16.69,1-16.65,1.37l.14,1.37-3.19.38-3.35.43-1.73.22-1.76.26c-1.19.17-2.4.33-3.61.52-4.88.75-10,1.65-15.09,2.69a224.48,224.48,0,0,0-28.1,7.62l.32,1c7.93-2.42,17.9-5.26,28-7.47,5.06-1.09,10.14-2.06,15-2.85,1.21-.2,2.41-.36,3.59-.54l1.75-.25,1.73-.22,3.34-.42,3.18-.32a45.75,45.75,0,0,0-7.14,1.36c-1,.34-1,.6-.91.94q-9.17,1.34-18.25,3.16c-6.06,1.23-12.1,2.6-18.06,4.25l-2.24.6-2.23.66c-1.48.44-3,.87-4.45,1.33-2.94,1-5.89,1.89-8.79,3l-2.18.79c-.32.13-.59.23-.86.35-.54.23-1.07.46-1.57.69A24.2,24.2,0,0,0,79.51,32c1.3-.54,2.59-1.07,3.91-1.55.33-.13.65-.26,1-.37l2.46-.87,2.92-1,2.93-1c-1.34.61-2.89,1.23-4.57,1.95-.85.36-1.73.72-2.66,1.09l-.34.14-.18.07-.08,0h0l-.22.11-.36.19c-.49.26-1,.49-1.46.73s-1,.47-1.54.71l-2.32,1-.71.32-.09,0-.05,0s0,0,0,0a.55.55,0,0,1,0,.18.78.78,0,0,0,0,.37.8.8,0,0,0,.51.44,3,3,0,0,0,.66.16,24,24,0,0,0,2.85.11h3Z"/></g></g></svg>