<svg id="hugeLogo" xmlns="http://www.w3.org/2000/svg" xmlns:xlink="http://www.w3.org/1999/xlink" width="1563.364" height="1231.647" viewBox="0 0 1563.364 1231.647">
  <defs>
    <clipPath id="clip-path">
      <rect id="Rechteck_78" data-name="Rechteck 78" width="1563.364" height="1231.647" fill="none"/>
    </clipPath>
  </defs>
  <g id="Gruppe_35" data-name="Gruppe 35" clip-path="url(#clip-path)">
    <path id="Pfad_212" data-name="Pfad 212" d="M15,1230.452c-1.019-1.893-13.954,2.461-14.846.82s2.039-3.219,10.513-8.583,23.129-13.694,46.768-26.632C173.4,1135.411,291.4,1077.729,412.271,1025.286A3961.575,3961.575,0,0,1,782.909,883.8c63.27-20.447,127.433-39,192.1-55.157l24.34-6.311,24.467-5.617c8.156-1.83,16.247-3.85,24.467-5.554l24.594-5.175c8.219-1.767,16.439-3.408,24.658-4.986l24.722-4.733c16.566-2.9,33.069-6,49.7-8.52,33.2-5.364,66.647-9.908,100.162-13.505q25.165-2.774,50.272-4.922c16.694-1.389,33.451-2.651,49.7-3.85l12.042-.947,5.926-.442h5.8l5.607-.568h2.74l2.485-.316,4.906-.631,2.485-.379h1.274a11.4,11.4,0,0,0,3.5-1.136,4.532,4.532,0,0,0,2.549-2.4,1.4,1.4,0,0,0,0-.884h-.765l-1.529-1.01c-.828-.442-1.657-.946-2.485-1.325l-10.386-5.175-16.184-7.447a643.368,643.368,0,0,0-68.24-25.243,1044.616,1044.616,0,0,0-146.548-32.564c-50.081-7.762-100.99-12.622-152.282-16.345s-102.838-5.112-154.576-5.427-103.6.5-155.532,2.4S608.9,670.3,556.4,673.521l-39.886,2.272c-6.818.379-13.572.694-21.09.884h-9.3l-9.111.379c-12.234.631-24.595,1.578-37.147,2.714l-18.8,1.893-14.91,1.641-19.434,2.4-38.994,5.049c-12.743,1.641-26,3.282-38.612,4.544a295.769,295.769,0,0,1-35.3,1.83,98.411,98.411,0,0,1-26.633-3.723l-2.676-.82-2.421-.884c-1.657-.568-3.058-1.2-4.588-1.83a79.405,79.405,0,0,1-7.71-4.165c-2.294-1.451-4.4-2.966-6.372-4.481a55.77,55.77,0,0,1-5.288-4.859,57.054,57.054,0,0,1-4.715-5.49,54.559,54.559,0,0,1-4.779-7.51,18.5,18.5,0,0,1-1.274-2.714l-.573-1.515v-.379h0v-.694A50.248,50.248,0,0,1,205,652.821c-1.019-3.6-2.421-6.942-3.568-10.413,1.147-6.816,1.975-13.19,3.186-19.437a126.048,126.048,0,0,1,5.225-18.364,142.677,142.677,0,0,1,19.625-36.792,201.527,201.527,0,0,1,34.662-35.909A334.481,334.481,0,0,1,315.1,498.08c9.43-5.238,19.115-10.224,29.373-14.957,5.034-2.4,10.067-4.67,15.164-6.942l9.557-4.1c11.15-4.733,22.364-9.088,33.515-13.253,22.428-8.267,44.6-15.588,67.157-22.34,44.6-13.379,89.649-24.486,134.505-34.331s89.713-18.3,134.633-26c89.776-15.4,179.68-27.515,269.584-37.865q67.351-7.762,134.824-14.136l67.348-6.311,33.515-2.966,16.439-1.515,7.773-.757h3.823l1.338,8.961,2.549,16.408,1.211,7.131,1.147,6.311c.382,1.956.765,3.85,1.211,5.743s.573,2.966.956,4.481a25.38,25.38,0,0,0,.956,3.408,3.309,3.309,0,0,0,.828,1.641l-31.858,45.122a264.412,264.412,0,0,0-45.111-24.044,485.768,485.768,0,0,0-52.821-18.933,940.077,940.077,0,0,0-115.135-25.559,2139.6,2139.6,0,0,0-242.122-23.6c-40.842-2.019-81.875-3.155-122.909-3.723-21.217-.568-41.67-.568-62.315-.568h-62.76l-28.864.442-31.412.568-62.952,1.388a391.046,391.046,0,0,1-57.345-1.83,126.239,126.239,0,0,1-37.274-9.592l-3.249-1.515-2.931-1.578-2.74-1.515c-.828-.568-1.784-1.073-2.549-1.641a50.427,50.427,0,0,1-4.524-3.219c-1.529-1.073-2.8-2.272-4.142-3.408a68.867,68.867,0,0,1-7.073-7.194,67.593,67.593,0,0,1-6.372-8.457,74.028,74.028,0,0,1-5.734-11.612,71.011,71.011,0,0,1-3.5-17.986v-8.961c-19.561,2.4,26.633-3.6,21.918-3.029l.51-3.155,1.019-6.311c2.485-14.7,4.906-29.282,7.391-43.86l9.111-4.228,9.3-4.1,18.605-8.33,37.083-16.534,9.3-4.1c3.058-1.388,6.372-2.777,9.558-4.1l20.071-7.889,40.078-15.714,20.071-7.889,10.195-3.786,9.111-3.155L531.42,95.7l10.258-3.66,10.7-3.471,21.154-6.689C630.882,63.831,688.991,48.369,747.8,36A1596.583,1596.583,0,0,1,1107.225.155c28.035.82,50.017,2.524,66.775,4.354L1185.6,5.9l9.749,1.451c2.931.442,5.607.947,7.965,1.388l3.441.694,3.441.694c6.372,1.641,7.837,2.587,5.989,3.029a28.754,28.754,0,0,1-5.416,0l-12.17-.442c-18.414-.568-48.233-1.325-83.851-.442-17.84.316-37.019,1.325-56.962,2.4s-40.46,2.9-60.913,5.049a313.6,313.6,0,0,1,54.86-1.262c13.763.82,27.526,1.641,55.115,1.01,0,1.578-7.009,3.345-20.708,5.238s-34.152,4.1-61.3,7.194S963.991,38.777,923.722,44.52,836.813,58.467,783.8,69.258c53.012-10.539,106.47-18.3,160.31-23.6,6.754-.442,11.851-.568,15.547-.5a41.388,41.388,0,0,1,7.391.5c2.549.568.956,1.578-2.294,2.84s-8.283,2.587-12.361,4.039-7.327,2.9-7.2,3.976L925.251,58.53,906.136,60.8c-12.743,1.451-24.149,3.282-34.088,4.8s-18.159,3.029-23.894,4.291-8.984,2.146-8.92,2.651l1.465,8.583c26.251-4.481,65.883-9.908,105.642-13.821s79.773-5.932,106.342-6.311c-53.2,1.073-106.342,6.311-106.088,8.646l.892,8.646-20.325,2.4-21.345,2.714-11.023,1.388-11.214,1.641c-7.582,1.073-15.292,2.083-23,3.282-31.094,4.733-63.716,10.413-96.148,16.976A1441.329,1441.329,0,0,0,585.388,154.77l2.039,6.311c50.527-15.272,114.052-33.195,178.406-47.142,32.24-6.879,64.608-13,95.575-17.986,7.709-1.262,15.356-2.272,22.874-3.408l11.15-1.578,11.023-1.388,21.281-2.651L948,84.909A293.808,293.808,0,0,0,902.5,93.492c-6.372,2.146-6.372,3.787-5.8,5.932q-58.425,8.453-116.282,19.942c-38.612,7.762-77.1,16.408-115.072,26.821l-14.273,3.787-14.209,4.165c-9.43,2.777-19.115,5.49-28.354,8.393-18.733,6.311-37.529,11.927-56.007,18.932l-13.89,4.986c-2.039.82-3.759,1.451-5.479,2.209-3.441,1.452-6.818,2.9-10,4.354a155.05,155.05,0,0,0-16.439,8.772c8.283-3.408,16.5-6.753,24.913-9.782,2.1-.82,4.142-1.641,6.372-2.335l15.674-5.49,18.605-6.311,18.669-6.311c-8.538,3.85-18.414,7.762-29.118,12.306-5.416,2.272-11.023,4.544-16.949,6.879l-2.166.884-1.147.442h-.51l-1.4.694-2.294,1.2c-3.122,1.641-6.372,3.092-9.3,4.607s-6.372,2.966-9.812,4.481l-14.782,6.311-4.524,2.02h-.892a3.4,3.4,0,0,1,0,1.136,4.825,4.825,0,0,0,0,2.335,5.075,5.075,0,0,0,3.25,2.777,19.264,19.264,0,0,0,4.205,1.01,154.4,154.4,0,0,0,18.159.694h19.115l58.364.126c54.923-.82,111.121-.631,168.466,1.136S885.3,225.7,944.621,231.573a1476.562,1476.562,0,0,1,180.19,27.894c15.165,3.408,30.393,7.194,45.621,11.549s30.52,9.088,45.812,14.641a493.959,493.959,0,0,1,45.685,18.932,316.653,316.653,0,0,1,45.047,25.938l25.933,17.986-7.2,17.67c-25.486,62.477-25.04,29.472-29.5,40.894l-4.014,1.2-1.848.442h-3.887l-3.186.379-4.779.568-8.6.82-16.439,1.452-32.5,2.777-64.736,5.68c-43.073,3.976-86.208,8.267-129.153,13C941.18,442.86,855.8,454.03,772.2,467.851a2369.175,2369.175,0,0,0-243.843,52.632,1018.838,1018.838,0,0,0-112.013,37.486l-12.743,5.554-2.995,1.388-1.274.694a50.36,50.36,0,0,0-4.842,2.714,37.456,37.456,0,0,0-7.9,6.311,14.623,14.623,0,0,0-4.205,7.131,9.183,9.183,0,0,0,0,1.325c0,.379,0,.947.446,1.2a7.913,7.913,0,0,0,3.441,0,31.285,31.285,0,0,0,6.372-1.01L403.8,581h3.058l20.134-2.524c13.444-1.388,27.016-2.587,40.778-3.408,6.881-.442,13.827-.82,20.835-1.073h9.366l9.239-.5c12.743-.694,25.487-1.578,38.23-2.4,52.12-3.534,105.132-6.816,158.335-9.024s106.725-3.408,160.5-3.282,107.808,1.641,161.967,5.049,108.318,8.772,162.986,17.1a1137.388,1137.388,0,0,1,162.859,36.1,746.445,746.445,0,0,1,80.346,29.6c6.372,2.9,13.253,6.311,19.816,9.088l9.813,4.922,2.548,1.262,1.848.947,2.039,1.073,8.474,4.8,16.949,9.593c5.543,3.345,10.641,6.942,15.993,10.35,10.9,6.816,20.262,14.326,30.138,21.583,1.4.883,2.995,1.767,4.269,2.651l2.358,3.219,4.715,6.311,4.715,6.311,1.21,1.578.574.821a3.756,3.756,0,0,1,0,.757l.892,2.966,3.632,12.054.446,1.515v.379a11.6,11.6,0,0,0,.383,3.345,67.214,67.214,0,0,1,0,8.015,78.644,78.644,0,0,1-7.455,30.418,99.658,99.658,0,0,1-17.777,25.748,149.91,149.91,0,0,1-61.487,36.792c-3.058,1.2-6.372,2.019-9.621,2.966s-6.371,1.893-9.748,2.714c-6.754,1.452-13.381,3.029-20.134,4.291l-8.475,1.325c-1.975.379-4.142.568-6.371.883-4.142.5-8.474,1.073-12.106,1.325-15.355,1.514-29.055,2.335-42.945,3.408s-27.271,2.02-40.778,3.156q-40.4,3.408-80.219,8.456a2269.562,2269.562,0,0,0-312.847,63.8c-.637-2.146,11.342-8.141,17.076-12.18s5.161-6.311-20.58-.379l-36.127,8.835c-11.341,2.714-21.791,5.617-31.858,8.015l-27.462,6.879-23.511,6.311c-28.991,7.068-48.425,11.738-61.677,14.073-26.442,4.607-27.908.568-29.373-3.534-.382-1.073,8.92-4.8,22.237-9.593l22.3-7.762,12.106-4.1,12.106-3.85c31.858-10.224,57.345-18.175,31.094-12.243,9.494-3.092,19.561-6,29.755-9.088l31.476-9.466c21.409-6.311,43.391-12.622,65.118-18.3,10.9-2.9,21.6-6,32.177-8.583L1009.1,882.6c9.94-2.524,19.688-4.733,28.864-6.942s17.9-4.417,26-6.311c32.5-7.51,55.37-12.622,60.085-14.073,2.421-.884,0-.947-7.391,0s-20.963,2.84-40.651,6.311c-6.372.883-15.8,2.209-26.634,4.354s-23.575,4.733-37.465,7.762-28.863,6.816-44.6,10.6-31.858,8.141-47.915,12.622L873,909.988c-15.419,4.481-30.265,8.772-43.964,12.622s-26.124,7.573-36.828,10.476" transform="translate(0 -0.003)" fill="#f7f7f5"/>
  </g>
</svg>
