<?xml version="1.0" encoding="utf-8"?>
<!-- Generator: Adobe Illustrator 24.0.2, SVG Export Plug-In . SVG Version: 6.00 Build 0)  -->
<svg version="1.1" id="Layer_1" xmlns="http://www.w3.org/2000/svg" xmlns:xlink="http://www.w3.org/1999/xlink" x="0px" y="0px"
	 viewBox="0 0 162.1 78" style="enable-background:new 0 0 162.1 78;" xml:space="preserve">
<style type="text/css">
	.st0{fill:#292F36;}
	.st1{fill:#F3F3F3;}
</style>
<path class="st0" d="M844.4,73.6c2.6,0,5.3,0,8,0.1c2.7,0.1,5.5,0.2,8.4,0.5c2.8,0.3,5.7,0.7,8.6,1.3c0.7,0.2,1.5,0.3,2.2,0.6
	c0.7,0.2,1.5,0.4,2.2,0.7c0.7,0.3,1.5,0.6,2.2,0.9c0.7,0.4,1.4,0.8,2.2,1.3l1.2,0.9l-0.3,0.8c-1.2,3-1.2,1.4-1.4,2
	c-0.1,0-0.2,0.1-0.2,0.1l-0.1,0l-0.1,0l-0.1,0l-0.1,0l-0.2,0l-0.2,0l-0.4,0l-0.8,0.1c-0.5,0-1,0.1-1.6,0.1c-1,0.1-2.1,0.2-3.1,0.3
	c-2.1,0.2-4.1,0.4-6.2,0.6c-4.1,0.5-8.2,1-12.2,1.7c-4,0.7-7.9,1.5-11.6,2.5c-1.9,0.5-3.7,1.1-5.3,1.8c-0.2,0.1-0.4,0.2-0.6,0.3
	c-0.1,0.1-0.1,0.1-0.1,0.1l-0.1,0c-0.1,0-0.2,0.1-0.2,0.1c-0.1,0.1-0.3,0.2-0.4,0.3c-0.1,0.1-0.2,0.2-0.2,0.4c0,0,0,0,0,0.1
	c0,0,0,0,0,0.1c0.1,0,0.1,0,0.2,0c0.1,0,0.2,0,0.3,0c0.2,0,0.4-0.1,0.5-0.1l0.1,0l0,0l0,0l0,0c0,0,0,0,0,0c0.3,0,0.6-0.1,1-0.1
	c0.6-0.1,1.3-0.1,1.9-0.2c0.3,0,0.7,0,1,0l0.4,0l0.4,0c0.6,0,1.2-0.1,1.8-0.1c2.5-0.2,5-0.3,7.6-0.4c2.5-0.1,5.1-0.2,7.7-0.2
	c2.6,0,5.1,0.1,7.7,0.2c2.6,0.2,5.2,0.4,7.8,0.8c2.6,0.4,5.2,0.9,7.8,1.7c1.3,0.4,2.6,0.9,3.8,1.4c0.3,0.1,0.6,0.3,0.9,0.4l0.5,0.2
	l0.1,0.1l0.1,0c0,0,0.1,0,0.1,0.1l0.4,0.2l0.8,0.5c0.3,0.2,0.5,0.3,0.8,0.5c0.5,0.3,1,0.7,1.4,1c0.1,0,0.1,0.1,0.2,0.1l0.1,0.2
	l0.2,0.3l0.2,0.3l0.1,0.1l0,0c0,0,0,0,0,0l0,0.1l0.2,0.6l0,0.1l0,0l0,0c0,0,0,0.1,0,0.2c0,0.1,0,0.3,0,0.4c0,0.5-0.2,1-0.4,1.5
	c-0.2,0.4-0.5,0.9-0.8,1.2c-0.7,0.8-1.7,1.4-2.9,1.8c-0.1,0.1-0.3,0.1-0.5,0.1c-0.2,0-0.3,0.1-0.5,0.1c-0.3,0.1-0.6,0.1-1,0.2
	l-0.4,0.1c-0.1,0-0.2,0-0.3,0c-0.2,0-0.4,0.1-0.6,0.1c-0.7,0.1-1.4,0.1-2,0.2c-0.7,0-1.3,0.1-1.9,0.2c-1.3,0.1-2.6,0.2-3.8,0.4
	c-5.1,0.6-10.1,1.7-14.9,3.1c0-0.1,0.5-0.4,0.8-0.6c0.3-0.2,0.2-0.3-1,0c-0.6,0.2-1.2,0.3-1.7,0.4c-0.5,0.1-1,0.3-1.5,0.4
	c-0.5,0.1-0.9,0.2-1.3,0.3c-0.4,0.1-0.8,0.2-1.1,0.3c-1.4,0.3-2.3,0.6-2.9,0.7c-1.3,0.2-1.3,0-1.4-0.2c0-0.1,0.4-0.2,1.1-0.5
	c0.3-0.1,0.7-0.2,1.1-0.4c0.2-0.1,0.4-0.1,0.6-0.2c0.2-0.1,0.4-0.1,0.6-0.2c1.5-0.5,2.7-0.9,1.5-0.6c0.5-0.2,0.9-0.3,1.4-0.4
	c0.5-0.1,1-0.3,1.5-0.5c1-0.3,2.1-0.6,3.1-0.9c0.5-0.1,1-0.3,1.5-0.4c0.5-0.1,1-0.3,1.5-0.4c0.5-0.1,0.9-0.2,1.4-0.3
	c0.4-0.1,0.9-0.2,1.2-0.3c1.6-0.4,2.6-0.6,2.9-0.7c0.1,0,0,0-0.4,0c-0.4,0-1,0.1-1.9,0.3c-0.3,0-0.8,0.1-1.3,0.2
	c-0.5,0.1-1.1,0.2-1.8,0.4c-0.7,0.2-1.4,0.3-2.1,0.5c-0.7,0.2-1.5,0.4-2.3,0.6c-0.8,0.2-1.5,0.4-2.3,0.6c-0.7,0.2-1.4,0.4-2.1,0.6
	c-0.7,0.2-1.2,0.4-1.8,0.5c-0.5,0.1-0.9,0.2-1.3,0.3c-1.3,0.3-0.7-0.1-0.2-0.4c0.3-0.2,0.6-0.4,0.6-0.5c0.1-0.1-0.1-0.1-0.8,0
	c-0.6,0.2-1.4,0.5-2.2,0.8c-0.8,0.3-1.7,0.6-2.6,1c-0.9,0.3-1.8,0.7-2.6,1c-0.4,0.2-0.8,0.3-1.2,0.5c-0.4,0.1-0.7,0.3-1,0.4
	c-2.5,0.8,2.2-1.5-0.2-0.6c-3.6,1.3-7.8,3.1-12.2,5.1c-4.4,2-9,4.4-13.5,6.8c0-0.1-0.7,0.1-0.7,0c0,0,0.1-0.2,0.5-0.4
	c0.4-0.3,1.1-0.7,2.2-1.3c5.5-2.9,11.2-5.7,16.9-8.2c5.8-2.5,11.7-4.9,17.7-6.8c3-1,6.1-1.9,9.2-2.7l1.2-0.3l1.2-0.3
	c0.4-0.1,0.8-0.2,1.2-0.3l1.2-0.3c0.4-0.1,0.8-0.2,1.2-0.2l1.2-0.2c0.8-0.1,1.6-0.3,2.4-0.4c1.6-0.3,3.2-0.5,4.8-0.7
	c0.8-0.1,1.6-0.2,2.4-0.2c0.8-0.1,1.6-0.1,2.4-0.2l0.6,0l0.3,0l0.1,0l0.1,0l0.3,0l0.1,0l0.1,0l0.2,0c0,0,0.1,0,0.1,0l0.1,0
	c0,0,0,0,0,0l0,0c0.1,0,0.1,0,0.2-0.1c0.1,0,0.1-0.1,0.1-0.1c0,0,0,0,0,0c0,0,0,0,0,0l0,0c0,0,0,0-0.1,0c0,0-0.1,0-0.1-0.1l-0.5-0.2
	c-0.3-0.1-0.5-0.2-0.8-0.4c-1-0.5-2.1-0.9-3.3-1.2c-2.2-0.7-4.6-1.2-7-1.6c-2.4-0.4-4.8-0.6-7.3-0.8c-2.4-0.2-4.9-0.2-7.4-0.3
	c-2.5,0-4.9,0-7.4,0.1c-2.5,0.1-5,0.2-7.5,0.4l-1.9,0.1c-0.3,0-0.6,0-1,0l-0.4,0l-0.4,0c-0.6,0-1.2,0.1-1.8,0.1
	c-0.3,0-0.6,0.1-0.9,0.1l-0.7,0.1l-0.9,0.1l-1.9,0.2c-0.6,0.1-1.2,0.2-1.8,0.2c-0.6,0.1-1.2,0.1-1.7,0.1c-0.5,0-0.9-0.1-1.3-0.2
	l-0.1,0l-0.1,0c-0.1,0-0.1-0.1-0.2-0.1c-0.1-0.1-0.3-0.1-0.4-0.2c-0.1-0.1-0.2-0.1-0.3-0.2c-0.1-0.1-0.2-0.2-0.3-0.2
	c-0.1-0.1-0.2-0.2-0.2-0.3c-0.1-0.1-0.1-0.2-0.2-0.4c0,0,0-0.1-0.1-0.1l0-0.1l0,0c0,0,0,0,0,0l0,0c0-0.1-0.1-0.2-0.1-0.3
	c0-0.2-0.1-0.3-0.2-0.5c0.1-0.3,0.1-0.6,0.2-0.9c0.1-0.3,0.1-0.6,0.2-0.9c0.2-0.6,0.5-1.2,0.9-1.7c0.4-0.6,1-1.2,1.7-1.7
	c0.7-0.6,1.5-1.1,2.4-1.6c0.5-0.3,0.9-0.5,1.4-0.7c0.2-0.1,0.5-0.2,0.7-0.3l0.5-0.2c0.5-0.2,1.1-0.4,1.6-0.6
	c1.1-0.4,2.1-0.8,3.2-1.1c2.1-0.6,4.3-1.2,6.4-1.7c2.1-0.5,4.3-0.9,6.4-1.3c4.3-0.7,8.6-1.3,12.9-1.8c2.1-0.2,4.3-0.5,6.4-0.7
	l3.2-0.3l1.6-0.1l0.8-0.1l0.4,0l0.2,0l0,0l0,0l0,0l0.1,0.4l0.1,0.8l0.1,0.3l0.1,0.3c0,0.1,0,0.2,0.1,0.3c0,0.1,0,0.1,0,0.2
	c0,0.1,0,0.1,0,0.2c0,0,0,0.1,0,0.1l-1.5,2.2c-0.6-0.4-1.4-0.8-2.2-1.2c-0.8-0.3-1.6-0.6-2.5-0.9c-1.8-0.5-3.6-0.9-5.5-1.2
	c-3.8-0.6-7.7-0.9-11.6-1.1c-2-0.1-3.9-0.2-5.9-0.2c-1,0-2,0-2.9,0l-1.5,0l-1.5,0l-1.4,0l-1.5,0l-3,0.1c-1,0-2,0-2.7-0.1
	c-0.8-0.1-1.4-0.3-1.8-0.5l-0.2-0.1l-0.1-0.1c0,0-0.1-0.1-0.1-0.1c0,0-0.1-0.1-0.1-0.1c-0.1-0.1-0.1-0.1-0.2-0.2
	c-0.1-0.1-0.1-0.1-0.2-0.2c-0.1-0.1-0.2-0.2-0.3-0.3c-0.1-0.1-0.2-0.3-0.3-0.4c-0.1-0.2-0.2-0.3-0.3-0.6c-0.1-0.2-0.2-0.6-0.2-0.9
	c0-0.1,0-0.2,0-0.2c0,0,0-0.1,0-0.1l0-0.1l0,0c-0.9,0.1,1.3-0.2,1-0.1l0,0l0-0.2l0-0.3c0.1-0.7,0.2-1.4,0.4-2.1l0.4-0.2l0.4-0.2
	l0.9-0.4l1.8-0.8l0.4-0.2c0.1-0.1,0.3-0.1,0.5-0.2l1-0.4l1.9-0.8l1-0.4c0.2-0.1,0.3-0.1,0.5-0.2l0.4-0.2l1-0.4l0.5-0.2l0.5-0.2
	l1-0.3c2.7-0.9,5.5-1.6,8.3-2.2c5.6-1.2,11.3-1.8,17.1-1.7c1.3,0,2.4,0.1,3.2,0.2c0.2,0,0.4,0,0.6,0.1c0.2,0,0.3,0,0.5,0.1
	c0.1,0,0.3,0,0.4,0.1c0.1,0,0.1,0,0.2,0c0.1,0,0.1,0,0.2,0c0.3,0.1,0.4,0.1,0.3,0.1c0,0-0.1,0-0.3,0c-0.1,0-0.3,0-0.6,0
	c-0.9,0-2.3-0.1-4,0c-0.9,0-1.8,0.1-2.7,0.1c-0.9,0.1-1.9,0.1-2.9,0.2c1.3-0.1,2-0.1,2.6-0.1c0.7,0,1.3,0.1,2.6,0
	c0,0.1-0.3,0.2-1,0.3c-0.7,0.1-1.6,0.2-2.9,0.3c-1.3,0.1-2.9,0.3-4.8,0.6c-1.9,0.3-4.1,0.7-6.7,1.2c2.5-0.5,5.1-0.9,7.7-1.1
	c0.3,0,0.6,0,0.7,0c0.2,0,0.3,0,0.4,0c0.1,0,0,0.1-0.1,0.1c-0.2,0.1-0.4,0.1-0.6,0.2c-0.2,0.1-0.3,0.1-0.3,0.2c-0.3,0-0.6,0.1-1,0.1
	c-0.3,0-0.6,0.1-0.9,0.1c-0.6,0.1-1.2,0.2-1.6,0.2c-0.5,0.1-0.9,0.1-1.1,0.2c-0.3,0.1-0.4,0.1-0.4,0.1c0,0.1,0.1,0.3,0.1,0.4
	c1.3-0.2,3.1-0.5,5-0.7c1.9-0.2,3.8-0.3,5.1-0.3c-2.5,0.1-5.1,0.3-5.1,0.4c0,0.1,0,0.3,0,0.4c-0.3,0-0.6,0.1-1,0.1
	c-0.3,0-0.7,0.1-1,0.1c-0.2,0-0.3,0-0.5,0.1c-0.2,0-0.4,0.1-0.5,0.1c-0.4,0.1-0.7,0.1-1.1,0.2c-1.5,0.2-3,0.5-4.6,0.8
	c-3.1,0.6-6.2,1.5-8.5,2.3l0.1,0.3c2.4-0.7,5.4-1.6,8.5-2.3c1.5-0.3,3.1-0.6,4.6-0.9c0.4-0.1,0.7-0.1,1.1-0.2c0.2,0,0.4-0.1,0.5-0.1
	c0.2,0,0.4,0,0.5-0.1c0.3,0,0.7-0.1,1-0.1c0.3,0,0.7-0.1,1-0.1c-1.2,0.2-1.9,0.3-2.2,0.4c-0.3,0.1-0.3,0.2-0.3,0.3
	c-1.9,0.3-3.7,0.6-5.6,1c-1.8,0.4-3.7,0.8-5.5,1.3l-0.7,0.2l-0.7,0.2c-0.5,0.1-0.9,0.3-1.4,0.4c-0.9,0.3-1.8,0.6-2.7,0.9l-0.7,0.2
	c-0.1,0-0.2,0.1-0.3,0.1c-0.2,0.1-0.3,0.1-0.5,0.2c-0.3,0.1-0.6,0.3-0.8,0.4c0.4-0.2,0.8-0.3,1.2-0.5c0.1,0,0.2-0.1,0.3-0.1l0.7-0.3
	l0.9-0.3l0.9-0.3c-0.4,0.2-0.9,0.4-1.4,0.6c-0.3,0.1-0.5,0.2-0.8,0.3l-0.1,0l-0.1,0l0,0l0,0c0,0,0,0-0.1,0c0,0-0.1,0-0.1,0.1
	c-0.1,0.1-0.3,0.1-0.4,0.2c-0.1,0.1-0.3,0.1-0.5,0.2c-0.2,0.1-0.5,0.2-0.7,0.3c-0.1,0-0.1,0.1-0.2,0.1l0,0l0,0c0,0,0,0,0,0
	c0,0,0,0,0,0.1c0,0,0,0.1,0,0.1c0,0.1,0.1,0.1,0.2,0.1c0.1,0,0.1,0,0.2,0c0.3,0,0.6,0,0.9,0c0.3,0,0.6,0,0.9,0
	C842.6,73.6,843.6,73.6,844.4,73.6z"/>
<g>
	<path class="st0" d="M-299.6,189.6v0.6c-0.9-0.1-2-0.1-3.4-0.1c-1.8,0-3.2,0-4.1,0.1v-0.6c0.8,0,1.4-0.1,1.7-0.3
		c0.4-0.2,0.5-0.5,0.5-0.9c0-0.4-0.1-0.9-0.4-1.5l-1.9-5.2h-7.7l-1.3,3.4c-0.4,1.2-0.6,2-0.6,2.6c0,0.7,0.2,1.1,0.7,1.4
		c0.5,0.3,1.2,0.5,2.1,0.5v0.6c-1.2-0.1-2.4-0.1-3.7-0.1c-1,0-1.8,0-2.4,0.1v-0.6c1.1-0.3,1.9-1.2,2.5-2.8l7.5-19.4h0.5l7.8,20.1
		C-301.3,188.9-300.6,189.6-299.6,189.6z M-307.5,181l-3.6-9.6l-3.6,9.6H-307.5z"/>
	<path class="st0" d="M-292.2,173.8h4.7v0.6h-4.7v12.4c0,1,0.2,1.7,0.5,2.1c0.4,0.4,0.9,0.6,1.5,0.6c0.7,0,1.2-0.3,1.7-0.8
		c0.5-0.5,0.9-1.4,1.2-2.6l0.6,0.2c-0.5,2.9-1.9,4.4-4.2,4.4c-0.7,0-1.3-0.1-1.8-0.3c-0.5-0.2-0.9-0.4-1.2-0.8c-0.5-0.5-0.8-1-1-1.7
		c-0.2-0.7-0.3-1.6-0.3-2.7v-10.7h-3.1v-0.6h3.1v-4.9c1.2,0,2.2-0.2,2.9-0.4V173.8z"/>
	<path class="st0" d="M-270.5,186.4c-0.4,1.2-1.1,2.2-2.2,3c-1.1,0.8-2.3,1.3-3.8,1.3c-1.5,0-2.8-0.3-3.9-1c-1.1-0.7-2-1.7-2.5-2.9
		c-0.6-1.2-0.9-2.7-0.9-4.3c0-1.9,0.3-3.5,0.9-4.8c0.6-1.4,1.4-2.4,2.5-3.1c1.1-0.7,2.4-1.1,3.8-1.1c1.9,0,3.4,0.6,4.4,1.7
		c1,1.2,1.6,2.9,1.6,5.3h-10c-0.1,0.6-0.1,1.3-0.1,2c0,1.4,0.2,2.6,0.7,3.7c0.5,1,1.1,1.8,1.8,2.4c0.8,0.6,1.6,0.8,2.4,0.8
		c1,0,1.9-0.2,2.7-0.7c0.8-0.5,1.4-1.3,2-2.5L-270.5,186.4z M-279.4,175.4c-0.7,1-1.2,2.4-1.3,4.3h7c0-1.7-0.2-3-0.7-4.2
		c-0.5-1.1-1.3-1.7-2.3-1.7C-277.8,173.9-278.6,174.4-279.4,175.4z"/>
	<path class="st0" d="M-261.6,187.3c0,0.9,0.2,1.5,0.5,1.8c0.4,0.3,1,0.5,1.9,0.5v0.7c-2-0.1-3.2-0.1-3.9-0.1c-0.6,0-1.9,0-3.9,0.1
		v-0.7c0.9,0,1.5-0.2,1.9-0.5c0.4-0.3,0.5-0.9,0.5-1.8V169c0-1-0.2-1.7-0.5-2.1c-0.4-0.4-1-0.7-1.9-0.7v-0.7c0.7,0.1,1.3,0.1,2,0.1
		c1.3,0,2.5-0.1,3.3-0.4V187.3z"/>
	<path class="st0" d="M-250.6,187.3c0,0.9,0.2,1.5,0.5,1.8c0.4,0.3,1,0.5,1.9,0.5v0.7c-2-0.1-3.2-0.1-3.9-0.1c-0.6,0-1.9,0-3.9,0.1
		v-0.7c0.9,0,1.5-0.2,1.9-0.5c0.4-0.3,0.5-0.9,0.5-1.8v-10c0-1-0.2-1.7-0.5-2.1c-0.4-0.4-1-0.7-1.9-0.7v-0.7c0.7,0.1,1.3,0.1,2,0.1
		c1.3,0,2.4-0.1,3.3-0.4V187.3z M-250.8,166.4c0.4,0.4,0.6,0.9,0.6,1.4c0,0.6-0.2,1-0.6,1.4c-0.4,0.4-0.9,0.6-1.4,0.6
		c-0.6,0-1-0.2-1.4-0.6c-0.4-0.4-0.6-0.9-0.6-1.4c0-0.6,0.2-1,0.6-1.4c0.4-0.4,0.9-0.6,1.4-0.6C-251.7,165.8-251.2,166-250.8,166.4z
		"/>
	<path class="st0" d="M-231.1,186.4c-0.4,1.2-1.1,2.2-2.2,3c-1.1,0.8-2.3,1.3-3.8,1.3c-1.5,0-2.8-0.3-3.9-1c-1.1-0.7-2-1.7-2.5-2.9
		c-0.6-1.2-0.9-2.7-0.9-4.3c0-1.9,0.3-3.5,0.9-4.8s1.4-2.4,2.5-3.1c1.1-0.7,2.4-1.1,3.8-1.1c1.9,0,3.4,0.6,4.4,1.7
		c1,1.2,1.6,2.9,1.6,5.3h-10c-0.1,0.6-0.1,1.3-0.1,2c0,1.4,0.2,2.6,0.7,3.7c0.5,1,1.1,1.8,1.8,2.4c0.8,0.6,1.6,0.8,2.4,0.8
		c1,0,1.9-0.2,2.7-0.7c0.8-0.5,1.4-1.3,2-2.5L-231.1,186.4z M-239.9,175.4c-0.7,1-1.2,2.4-1.3,4.3h7c0-1.7-0.2-3-0.7-4.2
		c-0.5-1.1-1.3-1.7-2.3-1.7C-238.3,173.9-239.2,174.4-239.9,175.4z"/>
	<path class="st0" d="M-215.1,174.1c0.5,0.5,0.8,1.1,0.8,1.8c0,0.6-0.2,1-0.5,1.4c-0.3,0.4-0.8,0.6-1.3,0.6c-0.5,0-0.9-0.1-1.2-0.4
		c-0.3-0.3-0.5-0.7-0.5-1.2c0-0.7,0.4-1.3,1.1-1.7c-0.1-0.2-0.4-0.3-0.7-0.3c-0.8,0-1.6,0.3-2.3,1c-0.7,0.7-1.2,1.4-1.6,2.4
		c-0.4,0.9-0.6,1.8-0.6,2.7v6.8c0,1,0.3,1.7,0.8,2c0.6,0.4,1.4,0.6,2.5,0.6v0.7l-0.8,0c-2.2-0.1-3.6-0.1-4.2-0.1
		c-0.6,0-1.8,0-3.8,0.1v-0.7c0.9,0,1.5-0.2,1.9-0.5c0.4-0.3,0.5-0.9,0.5-1.8v-10c0-1-0.2-1.7-0.5-2.1c-0.4-0.4-1-0.7-1.9-0.7v-0.7
		c0.7,0.1,1.3,0.1,2,0.1c1.3,0,2.4-0.1,3.3-0.4v4c0.4-1.1,1-2,1.8-2.8c0.8-0.8,1.8-1.2,2.8-1.2
		C-216.4,173.3-215.7,173.6-215.1,174.1z"/>
	<path class="st0" d="M-292.5,223.7c1.9,1.6,2.9,3.4,2.9,5.6c0,2.9-1.2,5.2-3.5,6.8c-2.3,1.6-5.5,2.4-9.6,2.4c-0.9,0-1.7,0-2.3,0
		c-2.1-0.1-4.1-0.1-6.1-0.1c-3.2,0-5.7,0-7.3,0.1v-0.9c1-0.1,1.8-0.2,2.3-0.4c0.5-0.2,0.8-0.6,1-1.1c0.2-0.5,0.3-1.4,0.3-2.6V210
		c0-1.2-0.1-2.1-0.3-2.6c-0.2-0.5-0.5-0.9-1-1.1c-0.5-0.2-1.3-0.3-2.3-0.4V205c1.6,0.1,4,0.1,7.2,0.1l5.3,0c0.6,0,1.4,0,2.2,0
		c3.8,0,6.7,0.7,8.7,2c2,1.4,3,3.2,3,5.4c0,1.8-0.8,3.5-2.4,5.1c-1.6,1.6-4,2.7-7.1,3.2v0.1C-297.4,221.2-294.4,222.1-292.5,223.7z
		 M-306.2,206.2c-0.4,0.2-0.7,0.6-0.8,1.2c-0.2,0.6-0.2,1.4-0.2,2.6v10.7h2c2.1,0,3.5-0.7,4.3-2.1c0.8-1.4,1.2-3.3,1.2-5.6
		c0-2.4-0.4-4.1-1.1-5.3c-0.7-1.2-1.9-1.8-3.5-1.8C-305.2,205.9-305.8,206-306.2,206.2z M-297.4,229.1c0-2.5-0.6-4.4-1.9-5.7
		c-1.3-1.3-3.3-1.9-6-1.9h-2v12c0,1.1,0.1,2,0.2,2.5c0.2,0.5,0.5,0.9,0.9,1.1c0.5,0.2,1.2,0.3,2.1,0.3
		C-299.6,237.4-297.4,234.6-297.4,229.1z"/>
	<path class="st0" d="M-263.5,233.3c0,1.5,0.2,2.5,0.7,3.2c0.5,0.7,1.2,1,2.3,1v1c-1-0.1-2-0.1-2.9-0.1c-2.7,0-5,0.2-6.9,0.7v-4.3
		c-1.5,2.9-4,4.4-7.6,4.4c-2.4,0-4.1-0.6-5.2-1.8c-0.5-0.6-0.9-1.4-1.1-2.3c-0.2-1-0.4-2.2-0.4-3.8v-12c0-1.5-0.2-2.5-0.7-3.2
		c-0.5-0.7-1.2-1-2.3-1v-1c1,0.1,2,0.1,2.9,0.1c2.7,0,5-0.2,6.9-0.7v19.6c0,1.3,0.2,2.3,0.6,3c0.4,0.7,1.1,1,2.2,1
		c1.3,0,2.3-0.5,3.2-1.6c0.9-1.1,1.3-2.4,1.3-3.9v-12.4c0-1.5-0.2-2.5-0.7-3.2c-0.5-0.7-1.2-1-2.3-1v-1c1,0.1,2,0.1,2.9,0.1
		c2.7,0,5-0.2,6.9-0.7V233.3z"/>
	<path class="st0" d="M-242.7,213.7c1,0.3,1.9,0.6,2.6,1c0.8,0.5,1.5,1.1,1.9,1.9c0.5,0.8,0.7,1.6,0.7,2.5c0,1.1-0.3,2-1,2.7
		c-0.7,0.7-1.6,1.1-2.7,1.1c-1.1,0-2-0.3-2.7-0.9c-0.7-0.6-1-1.5-1-2.6c0-0.9,0.3-1.8,0.9-2.5c0.6-0.7,1.3-1.2,2.2-1.4
		c-0.3-0.3-0.6-0.6-1.2-0.8c-0.5-0.2-1.1-0.3-1.7-0.3c-1.9,0-3.4,1-4.4,3.1c-1.1,2.1-1.6,4.8-1.6,8.1c0,3.4,0.6,5.8,1.8,7.3
		c1.2,1.5,2.7,2.2,4.5,2.2c1.1,0,2.2-0.3,3.2-0.9c1.1-0.6,2.1-1.6,3-3l0.8,0.3c-0.6,2.1-1.7,3.8-3.3,5.3c-1.6,1.5-3.6,2.2-6.1,2.2
		c-3.2,0-5.9-1.1-8-3.2c-2.1-2.1-3.1-5.3-3.1-9.6c0-2.8,0.5-5.1,1.5-7.1c1-2,2.4-3.4,4.2-4.4c1.8-1,3.8-1.5,6.1-1.5
		C-244.9,213.3-243.8,213.5-242.7,213.7z"/>
	<path class="st0" d="M-225.3,217.7c1.4-2.9,4-4.4,7.7-4.4c2.5,0,4.2,0.6,5.2,1.8c0.5,0.6,0.9,1.4,1.2,2.3c0.2,1,0.4,2.2,0.4,3.8
		v12.7c0,1.3,0.2,2.2,0.7,2.7c0.4,0.5,1.2,0.7,2.4,0.7v1c-3.3-0.1-5.4-0.2-6.2-0.2c-1.1,0-3.1,0.1-6.2,0.2v-1c0.9,0,1.6-0.2,2-0.7
		c0.4-0.5,0.6-1.4,0.6-2.7v-14.7c0-1.3-0.2-2.3-0.6-2.9s-1.2-1-2.3-1c-1.3,0-2.4,0.5-3.3,1.5c-0.9,1-1.3,2.3-1.3,3.9v13.2
		c0,1.3,0.2,2.2,0.6,2.7c0.4,0.5,1,0.7,2,0.7v1c-3-0.1-5-0.2-5.9-0.2c-1.1,0-3.2,0.1-6.5,0.2v-1c1.1,0,1.9-0.2,2.3-0.7
		c0.5-0.5,0.7-1.4,0.7-2.7v-26.9c0-1.5-0.2-2.5-0.7-3.2c-0.5-0.7-1.2-1-2.3-1v-1c1,0.1,2,0.1,2.9,0.1c2.7,0,5-0.2,6.9-0.7V217.7z"/>
	<path class="st0" d="M-183.3,215.2c0.5,0.6,0.9,1.4,1.1,2.3c0.2,0.9,0.3,2.2,0.3,3.8v12.7c0,1.3,0.2,2.2,0.7,2.7
		c0.5,0.5,1.2,0.7,2.3,0.7v1c-3.2-0.1-5.2-0.2-6.2-0.2c-0.9,0-3,0.1-6.2,0.2v-1c0.9,0,1.6-0.2,2-0.7c0.4-0.5,0.6-1.4,0.6-2.7v-14.7
		c0-1.3-0.2-2.3-0.6-2.9c-0.4-0.7-1.2-1-2.3-1c-1.3,0-2.4,0.5-3.3,1.6c-0.9,1.1-1.4,2.4-1.4,3.9v13.2c0,1.3,0.2,2.2,0.6,2.7
		c0.4,0.5,1,0.7,2,0.7v1c-2.9-0.1-4.9-0.2-5.9-0.2c-0.9,0-3.1,0.1-6.5,0.2v-1c1.1,0,1.9-0.2,2.4-0.7c0.4-0.5,0.7-1.4,0.7-2.7v-14.9
		c0-1.5-0.2-2.5-0.7-3.2c-0.4-0.7-1.2-1-2.4-1v-1c1,0.1,2,0.1,2.9,0.1c2.8,0,5.1-0.2,6.9-0.7v4.3c1.4-2.9,4-4.4,7.8-4.4
		C-186.1,213.3-184.4,214-183.3,215.2z"/>
	<path class="st0" d="M-156.9,231.5l0.9,0.3c-0.6,2.1-1.8,3.8-3.4,5.2c-1.6,1.4-3.7,2.2-6.1,2.2c-3.3,0-6-1.1-8-3.2
		c-2-2.1-3-5.3-3-9.4c0-4.3,1.1-7.5,3.2-9.8c2.1-2.3,4.9-3.4,8.4-3.4c5.9,0,8.9,3.5,8.9,10.5h-13.3c0,0.5,0,1.2,0,2.2
		c0,2.1,0.3,3.8,0.9,5.2c0.6,1.4,1.3,2.4,2.3,3c0.9,0.6,1.9,0.9,3,0.9C-160.6,235.3-158.5,234-156.9,231.5z M-168,216.4
		c-0.7,1.4-1.2,3.6-1.4,6.5h7.4c0.1-2.5-0.2-4.6-0.7-6.2c-0.6-1.6-1.4-2.4-2.5-2.4C-166.3,214.3-167.2,215-168,216.4z"/>
	<path class="st0" d="M-134,214.6c0.7,0.9,1.1,1.9,1.1,3.1c0,1.2-0.3,2.1-1,2.9c-0.7,0.7-1.6,1.1-2.7,1.1c-1.1,0-1.9-0.3-2.6-0.8
		c-0.6-0.6-0.9-1.3-0.9-2.2c0-1.5,0.7-2.7,2.1-3.7c-0.1,0-0.3,0-0.6,0c-0.3,0-0.6,0-0.8,0.1c-1.2,0.2-2.2,0.9-3.1,2.2
		c-0.8,1.3-1.3,2.6-1.3,3.9v12.5c0,1.5,0.4,2.5,1.1,3c0.7,0.6,1.8,0.9,3.4,0.9v1c-0.4,0-0.8,0-1.1,0c-3.2-0.1-5.4-0.1-6.4-0.1
		c-0.9,0-2.8,0-5.8,0.1c-0.3,0-0.6,0-0.9,0v-1c1.1,0,1.9-0.2,2.4-0.7c0.4-0.5,0.7-1.4,0.7-2.7v-14.9c0-1.5-0.2-2.5-0.7-3.2
		c-0.4-0.7-1.2-1-2.4-1v-1c1,0.1,2,0.1,2.9,0.1c2.8,0,5.1-0.2,6.9-0.7v4.4c0.6-1.4,1.5-2.5,2.6-3.3c1.1-0.8,2.4-1.3,3.8-1.3
		C-135.8,213.3-134.7,213.8-134,214.6z"/>
</g>
<g>
	<path class="st0" d="M722.5,74.4v0.3c-0.4,0-0.9,0-1.6,0c-0.9,0-1.5,0-1.9,0v-0.3c0.4,0,0.6-0.1,0.8-0.1c0.2-0.1,0.2-0.2,0.2-0.4
		c0-0.2-0.1-0.4-0.2-0.7l-0.9-2.4h-3.6l-0.6,1.6c-0.2,0.5-0.3,0.9-0.3,1.2c0,0.3,0.1,0.5,0.3,0.7c0.2,0.1,0.5,0.2,1,0.2v0.3
		c-0.6,0-1.1,0-1.7,0c-0.4,0-0.8,0-1.1,0v-0.3c0.5-0.1,0.9-0.6,1.2-1.3l3.5-9h0.2l3.6,9.4C721.7,74,722.1,74.4,722.5,74.4z
		 M718.9,70.4l-1.7-4.5l-1.7,4.5H718.9z"/>
	<path class="st0" d="M726,67h2.2v0.3H726v5.8c0,0.4,0.1,0.8,0.2,1c0.2,0.2,0.4,0.3,0.7,0.3c0.3,0,0.6-0.1,0.8-0.4
		c0.2-0.2,0.4-0.7,0.6-1.2l0.3,0.1c-0.2,1.4-0.9,2.1-1.9,2.1c-0.3,0-0.6,0-0.8-0.1c-0.2-0.1-0.4-0.2-0.6-0.4
		c-0.2-0.2-0.4-0.5-0.5-0.8c-0.1-0.3-0.1-0.7-0.1-1.3v-5h-1.4V67h1.4v-2.3c0.6,0,1-0.1,1.3-0.2V67z"/>
	<path class="st0" d="M736.1,72.9c-0.2,0.5-0.5,1-1,1.4c-0.5,0.4-1.1,0.6-1.8,0.6c-0.7,0-1.3-0.2-1.8-0.5c-0.5-0.3-0.9-0.8-1.2-1.4
		c-0.3-0.6-0.4-1.3-0.4-2c0-0.9,0.1-1.6,0.4-2.3c0.3-0.6,0.7-1.1,1.2-1.5c0.5-0.3,1.1-0.5,1.8-0.5c0.9,0,1.6,0.3,2.1,0.8
		c0.5,0.5,0.7,1.4,0.7,2.5h-4.7c0,0.3,0,0.6,0,1c0,0.7,0.1,1.2,0.3,1.7c0.2,0.5,0.5,0.9,0.9,1.1c0.4,0.3,0.7,0.4,1.1,0.4
		c0.5,0,0.9-0.1,1.3-0.3c0.4-0.2,0.7-0.6,0.9-1.1L736.1,72.9z M732,67.7c-0.3,0.5-0.5,1.1-0.6,2h3.3c0-0.8-0.1-1.4-0.3-1.9
		c-0.2-0.5-0.6-0.8-1.1-0.8C732.7,67.1,732.3,67.3,732,67.7z"/>
	<path class="st0" d="M740.3,73.3c0,0.4,0.1,0.7,0.3,0.8c0.2,0.2,0.5,0.2,0.9,0.2v0.3c-0.9,0-1.5-0.1-1.8-0.1c-0.3,0-0.9,0-1.8,0.1
		v-0.3c0.4,0,0.7-0.1,0.9-0.2c0.2-0.2,0.3-0.4,0.3-0.8v-8.5c0-0.5-0.1-0.8-0.3-1c-0.2-0.2-0.5-0.3-0.9-0.3v-0.3c0.3,0,0.6,0,0.9,0
		c0.6,0,1.1-0.1,1.6-0.2V73.3z"/>
	<path class="st0" d="M745.4,73.3c0,0.4,0.1,0.7,0.3,0.8c0.2,0.2,0.5,0.2,0.9,0.2v0.3c-0.9,0-1.5-0.1-1.8-0.1c-0.3,0-0.9,0-1.8,0.1
		v-0.3c0.4,0,0.7-0.1,0.9-0.2c0.2-0.2,0.3-0.4,0.3-0.8v-4.7c0-0.5-0.1-0.8-0.3-1c-0.2-0.2-0.5-0.3-0.9-0.3V67c0.3,0,0.6,0,0.9,0
		c0.6,0,1.1-0.1,1.6-0.2V73.3z M745.3,63.5c0.2,0.2,0.3,0.4,0.3,0.7c0,0.3-0.1,0.5-0.3,0.7c-0.2,0.2-0.4,0.3-0.7,0.3
		c-0.3,0-0.5-0.1-0.7-0.3c-0.2-0.2-0.3-0.4-0.3-0.7c0-0.3,0.1-0.5,0.3-0.7c0.2-0.2,0.4-0.3,0.7-0.3
		C744.9,63.3,745.1,63.4,745.3,63.5z"/>
	<path class="st0" d="M754.5,72.9c-0.2,0.5-0.5,1-1,1.4c-0.5,0.4-1.1,0.6-1.8,0.6c-0.7,0-1.3-0.2-1.8-0.5s-0.9-0.8-1.2-1.4
		c-0.3-0.6-0.4-1.3-0.4-2c0-0.9,0.1-1.6,0.4-2.3c0.3-0.6,0.7-1.1,1.2-1.5c0.5-0.3,1.1-0.5,1.8-0.5c0.9,0,1.6,0.3,2.1,0.8
		c0.5,0.5,0.7,1.4,0.7,2.5h-4.7c0,0.3,0,0.6,0,1c0,0.7,0.1,1.2,0.3,1.7c0.2,0.5,0.5,0.9,0.9,1.1c0.4,0.3,0.7,0.4,1.1,0.4
		c0.5,0,0.9-0.1,1.3-0.3c0.4-0.2,0.7-0.6,0.9-1.1L754.5,72.9z M750.4,67.7c-0.3,0.5-0.5,1.1-0.6,2h3.3c0-0.8-0.1-1.4-0.3-1.9
		c-0.2-0.5-0.6-0.8-1.1-0.8C751.2,67.1,750.7,67.3,750.4,67.7z"/>
	<path class="st0" d="M762,67.1c0.3,0.2,0.4,0.5,0.4,0.8c0,0.3-0.1,0.5-0.2,0.7c-0.2,0.2-0.4,0.3-0.6,0.3c-0.2,0-0.4-0.1-0.6-0.2
		c-0.2-0.1-0.2-0.3-0.2-0.6c0-0.3,0.2-0.6,0.5-0.8c-0.1-0.1-0.2-0.1-0.3-0.1c-0.4,0-0.7,0.2-1.1,0.5c-0.3,0.3-0.6,0.7-0.7,1.1
		c-0.2,0.4-0.3,0.9-0.3,1.2v3.2c0,0.5,0.1,0.8,0.4,1c0.3,0.2,0.7,0.3,1.2,0.3v0.3l-0.4,0c-1,0-1.7,0-1.9,0c-0.3,0-0.8,0-1.8,0.1
		v-0.3c0.4,0,0.7-0.1,0.9-0.2c0.2-0.2,0.3-0.4,0.3-0.8v-4.7c0-0.5-0.1-0.8-0.3-1c-0.2-0.2-0.5-0.3-0.9-0.3V67c0.3,0,0.6,0,0.9,0
		c0.6,0,1.1-0.1,1.6-0.2v1.9c0.2-0.5,0.5-0.9,0.9-1.3c0.4-0.4,0.8-0.6,1.3-0.6C761.4,66.8,761.7,66.9,762,67.1z"/>
	<path class="st0" d="M725.9,90.3c0.9,0.7,1.3,1.6,1.3,2.6c0,1.4-0.5,2.4-1.6,3.2c-1.1,0.7-2.6,1.1-4.5,1.1c-0.4,0-0.8,0-1.1,0
		c-1,0-1.9,0-2.8,0c-1.5,0-2.7,0-3.4,0.1v-0.4c0.5,0,0.8-0.1,1.1-0.2c0.2-0.1,0.4-0.3,0.5-0.5c0.1-0.3,0.1-0.7,0.1-1.2v-11
		c0-0.6,0-1-0.1-1.2c-0.1-0.3-0.2-0.4-0.5-0.5c-0.2-0.1-0.6-0.1-1.1-0.2v-0.4c0.8,0,1.9,0.1,3.4,0.1l2.5,0c0.3,0,0.6,0,1,0
		c1.8,0,3.1,0.3,4.1,0.9c0.9,0.6,1.4,1.5,1.4,2.5c0,0.9-0.4,1.6-1.1,2.4c-0.7,0.7-1.8,1.2-3.3,1.5v0C723.6,89.1,725,89.6,725.9,90.3
		z M719.4,82.1c-0.2,0.1-0.3,0.3-0.4,0.6c-0.1,0.3-0.1,0.7-0.1,1.2v5h0.9c1,0,1.6-0.3,2-1c0.4-0.7,0.6-1.5,0.6-2.6
		c0-1.1-0.2-1.9-0.5-2.5c-0.3-0.5-0.9-0.8-1.6-0.8C719.9,82,719.6,82,719.4,82.1z M723.5,92.8c0-1.2-0.3-2-0.9-2.7
		c-0.6-0.6-1.5-0.9-2.8-0.9H719v5.6c0,0.5,0,0.9,0.1,1.2c0.1,0.3,0.2,0.4,0.4,0.5c0.2,0.1,0.5,0.1,1,0.1
		C722.5,96.7,723.5,95.4,723.5,92.8z"/>
	<path class="st0" d="M739.4,94.8c0,0.7,0.1,1.2,0.3,1.5c0.2,0.3,0.6,0.5,1.1,0.5v0.5c-0.5,0-0.9-0.1-1.4-0.1
		c-1.3,0-2.4,0.1-3.2,0.3v-2c-0.7,1.4-1.9,2.1-3.6,2.1c-1.1,0-1.9-0.3-2.4-0.9c-0.2-0.3-0.4-0.6-0.5-1.1c-0.1-0.4-0.2-1-0.2-1.8
		v-5.6c0-0.7-0.1-1.2-0.3-1.5c-0.2-0.3-0.6-0.5-1.1-0.5v-0.5c0.5,0,0.9,0.1,1.4,0.1c1.3,0,2.4-0.1,3.2-0.3v9.1
		c0,0.6,0.1,1.1,0.3,1.4c0.2,0.3,0.5,0.5,1,0.5c0.6,0,1.1-0.2,1.5-0.7c0.4-0.5,0.6-1.1,0.6-1.8v-5.8c0-0.7-0.1-1.2-0.3-1.5
		s-0.6-0.5-1.1-0.5v-0.5c0.5,0,0.9,0.1,1.4,0.1c1.3,0,2.4-0.1,3.2-0.3V94.8z"/>
	<path class="st0" d="M749.1,85.6c0.5,0.1,0.9,0.3,1.2,0.5c0.4,0.2,0.7,0.5,0.9,0.9c0.2,0.4,0.3,0.8,0.3,1.2c0,0.5-0.2,0.9-0.5,1.3
		c-0.3,0.3-0.7,0.5-1.3,0.5c-0.5,0-0.9-0.1-1.2-0.4c-0.3-0.3-0.5-0.7-0.5-1.2c0-0.4,0.1-0.8,0.4-1.1c0.3-0.3,0.6-0.5,1-0.7
		c-0.1-0.2-0.3-0.3-0.5-0.4c-0.2-0.1-0.5-0.1-0.8-0.1c-0.9,0-1.6,0.5-2.1,1.4c-0.5,1-0.7,2.2-0.7,3.8c0,1.6,0.3,2.7,0.8,3.4
		c0.6,0.7,1.3,1,2.1,1c0.5,0,1-0.1,1.5-0.4c0.5-0.3,1-0.7,1.4-1.4l0.4,0.1c-0.3,1-0.8,1.8-1.5,2.5c-0.7,0.7-1.7,1-2.8,1
		c-1.5,0-2.8-0.5-3.7-1.5c-1-1-1.4-2.5-1.4-4.5c0-1.3,0.2-2.4,0.7-3.3c0.5-0.9,1.1-1.6,1.9-2.1c0.8-0.5,1.8-0.7,2.8-0.7
		C748.1,85.4,748.6,85.5,749.1,85.6z"/>
	<path class="st0" d="M757.2,87.5c0.7-1.4,1.9-2.1,3.6-2.1c1.1,0,2,0.3,2.4,0.9c0.3,0.3,0.4,0.6,0.5,1.1c0.1,0.4,0.2,1,0.2,1.8v5.9
		c0,0.6,0.1,1,0.3,1.2c0.2,0.2,0.6,0.3,1.1,0.3v0.5c-1.5-0.1-2.5-0.1-2.9-0.1c-0.5,0-1.5,0-2.9,0.1v-0.5c0.4,0,0.8-0.1,0.9-0.3
		c0.2-0.2,0.3-0.6,0.3-1.2v-6.9c0-0.6-0.1-1.1-0.3-1.4c-0.2-0.3-0.6-0.5-1.1-0.5c-0.6,0-1.1,0.2-1.6,0.7c-0.4,0.5-0.6,1.1-0.6,1.8
		v6.2c0,0.6,0.1,1,0.3,1.2c0.2,0.2,0.5,0.3,0.9,0.3v0.5c-1.4-0.1-2.3-0.1-2.7-0.1c-0.5,0-1.5,0-3,0.1v-0.5c0.5,0,0.9-0.1,1.1-0.3
		c0.2-0.2,0.3-0.6,0.3-1.2V82.6c0-0.7-0.1-1.2-0.3-1.5c-0.2-0.3-0.6-0.5-1.1-0.5v-0.5c0.5,0,0.9,0.1,1.4,0.1c1.3,0,2.4-0.1,3.2-0.3
		V87.5z"/>
	<path class="st0" d="M776.8,86.3c0.2,0.3,0.4,0.6,0.5,1.1c0.1,0.4,0.2,1,0.2,1.8v5.9c0,0.6,0.1,1,0.3,1.2c0.2,0.2,0.6,0.3,1.1,0.3
		v0.5c-1.5-0.1-2.4-0.1-2.9-0.1c-0.4,0-1.4,0-2.9,0.1v-0.5c0.4,0,0.8-0.1,0.9-0.3c0.2-0.2,0.3-0.6,0.3-1.2v-6.9
		c0-0.6-0.1-1.1-0.3-1.4c-0.2-0.3-0.6-0.5-1.1-0.5c-0.6,0-1.1,0.2-1.5,0.7c-0.4,0.5-0.6,1.1-0.6,1.8v6.1c0,0.6,0.1,1,0.3,1.2
		c0.2,0.2,0.5,0.3,0.9,0.3v0.5c-1.4-0.1-2.3-0.1-2.7-0.1c-0.4,0-1.5,0-3,0.1v-0.5c0.5,0,0.9-0.1,1.1-0.3c0.2-0.2,0.3-0.6,0.3-1.2v-7
		c0-0.7-0.1-1.2-0.3-1.5c-0.2-0.3-0.6-0.5-1.1-0.5v-0.5c0.5,0,0.9,0.1,1.4,0.1c1.3,0,2.4-0.1,3.2-0.3v2c0.7-1.4,1.9-2.1,3.6-2.1
		C775.5,85.4,776.3,85.7,776.8,86.3z"/>
	<path class="st0" d="M789.1,93.9l0.4,0.1c-0.3,1-0.8,1.8-1.6,2.4c-0.8,0.7-1.7,1-2.8,1c-1.6,0-2.8-0.5-3.7-1.5
		c-0.9-1-1.4-2.5-1.4-4.4c0-2,0.5-3.5,1.5-4.6c1-1.1,2.3-1.6,3.9-1.6c2.8,0,4.2,1.6,4.2,4.9h-6.2c0,0.2,0,0.6,0,1
		c0,1,0.1,1.8,0.4,2.4c0.3,0.6,0.6,1.1,1.1,1.4c0.4,0.3,0.9,0.4,1.4,0.4C787.4,95.7,788.4,95.1,789.1,93.9z M784,86.9
		c-0.3,0.7-0.6,1.7-0.7,3h3.5c0-1.2-0.1-2.1-0.3-2.9c-0.3-0.8-0.6-1.1-1.2-1.1C784.8,85.9,784.3,86.2,784,86.9z"/>
	<path class="st0" d="M799.8,86c0.3,0.4,0.5,0.9,0.5,1.4c0,0.5-0.2,1-0.5,1.3c-0.3,0.3-0.7,0.5-1.2,0.5c-0.5,0-0.9-0.1-1.2-0.4
		c-0.3-0.3-0.4-0.6-0.4-1c0-0.7,0.3-1.3,1-1.7c-0.1,0-0.1,0-0.3,0c-0.1,0-0.3,0-0.4,0c-0.6,0.1-1,0.4-1.4,1
		c-0.4,0.6-0.6,1.2-0.6,1.8v5.9c0,0.7,0.2,1.1,0.5,1.4c0.3,0.3,0.9,0.4,1.6,0.4v0.5c-0.2,0-0.4,0-0.5,0c-1.5,0-2.5-0.1-3-0.1
		c-0.4,0-1.3,0-2.7,0.1c-0.1,0-0.3,0-0.4,0v-0.5c0.5,0,0.9-0.1,1.1-0.3c0.2-0.2,0.3-0.6,0.3-1.2v-7c0-0.7-0.1-1.2-0.3-1.5
		c-0.2-0.3-0.6-0.5-1.1-0.5v-0.5c0.5,0,0.9,0.1,1.4,0.1c1.3,0,2.4-0.1,3.2-0.3v2.1c0.3-0.6,0.7-1.1,1.2-1.5c0.5-0.4,1.1-0.6,1.8-0.6
		C799,85.4,799.5,85.6,799.8,86z"/>
</g>
<g>
	<g>
		<path class="st0" d="M98.1,34.2v0.2c-0.3,0-0.8,0-1.3,0c-0.7,0-1.2,0-1.6,0v-0.2c0.3,0,0.5-0.1,0.7-0.1c0.1-0.1,0.2-0.2,0.2-0.3
			c0-0.1,0-0.3-0.1-0.6l-0.7-2h-3l-0.5,1.3c-0.2,0.4-0.2,0.8-0.2,1c0,0.3,0.1,0.4,0.3,0.6c0.2,0.1,0.4,0.2,0.8,0.2v0.2
			c-0.5,0-0.9,0-1.4,0c-0.4,0-0.7,0-0.9,0v-0.2c0.4-0.1,0.7-0.5,1-1.1l2.9-7.4h0.2l3,7.7C97.4,33.9,97.7,34.2,98.1,34.2z M95.1,30.9
			l-1.4-3.7l-1.4,3.7H95.1z"/>
		<path class="st0" d="M101,28.1h1.8v0.2H101v4.7c0,0.4,0.1,0.6,0.2,0.8c0.1,0.2,0.3,0.2,0.6,0.2c0.3,0,0.5-0.1,0.6-0.3
			c0.2-0.2,0.3-0.5,0.5-1l0.2,0.1c-0.2,1.1-0.7,1.7-1.6,1.7c-0.3,0-0.5,0-0.7-0.1c-0.2-0.1-0.3-0.2-0.5-0.3
			c-0.2-0.2-0.3-0.4-0.4-0.7c-0.1-0.3-0.1-0.6-0.1-1.1v-4.1h-1.2v-0.2h1.2v-1.9c0.5,0,0.8-0.1,1.1-0.2V28.1z"/>
		<path class="st0" d="M109.3,32.9c-0.1,0.4-0.4,0.8-0.8,1.2c-0.4,0.3-0.9,0.5-1.5,0.5c-0.6,0-1.1-0.1-1.5-0.4
			c-0.4-0.3-0.8-0.6-1-1.1c-0.2-0.5-0.3-1-0.3-1.7c0-0.7,0.1-1.3,0.3-1.9c0.2-0.5,0.6-0.9,1-1.2c0.4-0.3,0.9-0.4,1.5-0.4
			c0.7,0,1.3,0.2,1.7,0.7c0.4,0.4,0.6,1.1,0.6,2h-3.8c0,0.2,0,0.5,0,0.8c0,0.5,0.1,1,0.3,1.4c0.2,0.4,0.4,0.7,0.7,0.9
			c0.3,0.2,0.6,0.3,0.9,0.3c0.4,0,0.7-0.1,1-0.3c0.3-0.2,0.6-0.5,0.8-0.9L109.3,32.9z M105.9,28.7c-0.3,0.4-0.4,0.9-0.5,1.7h2.7
			c0-0.6-0.1-1.2-0.3-1.6c-0.2-0.4-0.5-0.6-0.9-0.6C106.5,28.2,106.1,28.3,105.9,28.7z"/>
		<path class="st0" d="M112.7,33.3c0,0.3,0.1,0.6,0.2,0.7c0.1,0.1,0.4,0.2,0.7,0.2v0.3c-0.8,0-1.2,0-1.5,0s-0.7,0-1.5,0v-0.3
			c0.3,0,0.6-0.1,0.7-0.2c0.1-0.1,0.2-0.4,0.2-0.7v-7c0-0.4-0.1-0.7-0.2-0.8c-0.1-0.2-0.4-0.3-0.7-0.3v-0.3c0.3,0,0.5,0,0.8,0
			c0.5,0,0.9-0.1,1.3-0.2V33.3z"/>
		<path class="st0" d="M116.9,33.3c0,0.3,0.1,0.6,0.2,0.7c0.1,0.1,0.4,0.2,0.7,0.2v0.3c-0.8,0-1.2,0-1.5,0s-0.7,0-1.5,0v-0.3
			c0.3,0,0.6-0.1,0.7-0.2c0.1-0.1,0.2-0.4,0.2-0.7v-3.8c0-0.4-0.1-0.7-0.2-0.8c-0.1-0.2-0.4-0.3-0.7-0.3v-0.3c0.3,0,0.5,0,0.8,0
			c0.5,0,0.9-0.1,1.3-0.2V33.3z M116.8,25.3c0.2,0.2,0.2,0.3,0.2,0.6c0,0.2-0.1,0.4-0.2,0.6c-0.2,0.2-0.3,0.2-0.6,0.2
			s-0.4-0.1-0.6-0.2c-0.2-0.2-0.2-0.3-0.2-0.6c0-0.2,0.1-0.4,0.2-0.6c0.2-0.2,0.3-0.2,0.6-0.2S116.7,25.1,116.8,25.3z"/>
		<path class="st0" d="M124.4,32.9c-0.1,0.4-0.4,0.8-0.8,1.2c-0.4,0.3-0.9,0.5-1.5,0.5c-0.6,0-1.1-0.1-1.5-0.4
			c-0.4-0.3-0.8-0.6-1-1.1c-0.2-0.5-0.3-1-0.3-1.7c0-0.7,0.1-1.3,0.3-1.9c0.2-0.5,0.6-0.9,1-1.2c0.4-0.3,0.9-0.4,1.5-0.4
			c0.7,0,1.3,0.2,1.7,0.7c0.4,0.4,0.6,1.1,0.6,2h-3.8c0,0.2,0,0.5,0,0.8c0,0.5,0.1,1,0.3,1.4c0.2,0.4,0.4,0.7,0.7,0.9
			c0.3,0.2,0.6,0.3,0.9,0.3c0.4,0,0.7-0.1,1-0.3c0.3-0.2,0.6-0.5,0.8-0.9L124.4,32.9z M121,28.7c-0.3,0.4-0.4,0.9-0.5,1.7h2.7
			c0-0.6-0.1-1.2-0.3-1.6c-0.2-0.4-0.5-0.6-0.9-0.6C121.6,28.2,121.3,28.3,121,28.7z"/>
		<path class="st0" d="M130.5,28.2c0.2,0.2,0.3,0.4,0.3,0.7c0,0.2-0.1,0.4-0.2,0.5c-0.1,0.2-0.3,0.2-0.5,0.2c-0.2,0-0.3-0.1-0.5-0.2
			c-0.1-0.1-0.2-0.3-0.2-0.5c0-0.3,0.1-0.5,0.4-0.7c-0.1-0.1-0.1-0.1-0.3-0.1c-0.3,0-0.6,0.1-0.9,0.4c-0.3,0.2-0.5,0.6-0.6,0.9
			c-0.1,0.4-0.2,0.7-0.2,1v2.6c0,0.4,0.1,0.6,0.3,0.8c0.2,0.1,0.5,0.2,1,0.2v0.3l-0.3,0c-0.8,0-1.4,0-1.6,0c-0.2,0-0.7,0-1.4,0v-0.3
			c0.3,0,0.6-0.1,0.7-0.2c0.1-0.1,0.2-0.4,0.2-0.7v-3.8c0-0.4-0.1-0.7-0.2-0.8c-0.1-0.2-0.4-0.3-0.7-0.3v-0.3c0.3,0,0.5,0,0.8,0
			c0.5,0,0.9-0.1,1.3-0.2v1.5c0.1-0.4,0.4-0.8,0.7-1.1c0.3-0.3,0.7-0.5,1.1-0.5C130,27.9,130.3,28,130.5,28.2z"/>
		<path class="st0" d="M100.8,47.3c0.7,0.6,1.1,1.3,1.1,2.1c0,1.1-0.4,2-1.3,2.6c-0.9,0.6-2.1,0.9-3.7,0.9c-0.4,0-0.6,0-0.9,0
			c-0.8,0-1.6,0-2.3,0c-1.2,0-2.2,0-2.8,0.1v-0.4c0.4,0,0.7-0.1,0.9-0.1c0.2-0.1,0.3-0.2,0.4-0.4c0.1-0.2,0.1-0.5,0.1-1v-9
			c0-0.5,0-0.8-0.1-1c-0.1-0.2-0.2-0.3-0.4-0.4c-0.2-0.1-0.5-0.1-0.9-0.1v-0.4c0.6,0,1.5,0.1,2.8,0.1l2,0c0.2,0,0.5,0,0.8,0
			c1.5,0,2.6,0.3,3.3,0.8c0.8,0.5,1.2,1.2,1.2,2.1c0,0.7-0.3,1.4-0.9,2c-0.6,0.6-1.5,1-2.7,1.2v0C98.9,46.3,100.1,46.7,100.8,47.3z
			 M95.6,40.6c-0.2,0.1-0.3,0.2-0.3,0.5c-0.1,0.2-0.1,0.5-0.1,1v4.1h0.8c0.8,0,1.3-0.3,1.7-0.8c0.3-0.5,0.5-1.3,0.5-2.2
			c0-0.9-0.1-1.6-0.4-2c-0.3-0.4-0.7-0.7-1.4-0.7C95.9,40.4,95.7,40.5,95.6,40.6z M98.9,49.3c0-1-0.2-1.7-0.7-2.2
			c-0.5-0.5-1.2-0.7-2.3-0.7h-0.8V51c0,0.4,0,0.8,0.1,1c0.1,0.2,0.2,0.3,0.4,0.4c0.2,0.1,0.4,0.1,0.8,0.1
			C98.1,52.5,98.9,51.5,98.9,49.3z"/>
		<path class="st0" d="M112,51c0,0.6,0.1,1,0.3,1.2c0.2,0.3,0.5,0.4,0.9,0.4v0.4c-0.4,0-0.8-0.1-1.1-0.1c-1.1,0-1.9,0.1-2.7,0.3
			v-1.6c-0.6,1.1-1.5,1.7-2.9,1.7c-0.9,0-1.6-0.2-2-0.7c-0.2-0.2-0.3-0.5-0.4-0.9c-0.1-0.4-0.1-0.9-0.1-1.5v-4.6
			c0-0.6-0.1-1-0.3-1.2c-0.2-0.3-0.5-0.4-0.9-0.4v-0.4c0.4,0,0.8,0.1,1.1,0.1c1.1,0,1.9-0.1,2.7-0.3v7.5c0,0.5,0.1,0.9,0.2,1.1
			c0.2,0.3,0.4,0.4,0.9,0.4c0.5,0,0.9-0.2,1.2-0.6c0.3-0.4,0.5-0.9,0.5-1.5v-4.8c0-0.6-0.1-1-0.3-1.2c-0.2-0.3-0.5-0.4-0.9-0.4v-0.4
			c0.4,0,0.8,0.1,1.1,0.1c1.1,0,1.9-0.1,2.7-0.3V51z"/>
		<path class="st0" d="M119.9,43.4c0.4,0.1,0.7,0.2,1,0.4c0.3,0.2,0.6,0.4,0.7,0.7c0.2,0.3,0.3,0.6,0.3,1c0,0.4-0.1,0.8-0.4,1
			c-0.3,0.3-0.6,0.4-1,0.4c-0.4,0-0.8-0.1-1-0.4c-0.3-0.2-0.4-0.6-0.4-1c0-0.4,0.1-0.7,0.3-0.9c0.2-0.3,0.5-0.4,0.9-0.5
			c-0.1-0.1-0.2-0.2-0.4-0.3c-0.2-0.1-0.4-0.1-0.6-0.1c-0.7,0-1.3,0.4-1.7,1.2c-0.4,0.8-0.6,1.8-0.6,3.1c0,1.3,0.2,2.2,0.7,2.8
			c0.5,0.6,1,0.9,1.7,0.9c0.4,0,0.8-0.1,1.2-0.3c0.4-0.2,0.8-0.6,1.1-1.1l0.3,0.1c-0.2,0.8-0.7,1.5-1.3,2c-0.6,0.6-1.4,0.8-2.3,0.8
			c-1.2,0-2.3-0.4-3.1-1.2c-0.8-0.8-1.2-2-1.2-3.7c0-1.1,0.2-2,0.6-2.7c0.4-0.8,0.9-1.3,1.6-1.7c0.7-0.4,1.5-0.6,2.3-0.6
			C119.1,43.3,119.5,43.3,119.9,43.4z"/>
		<path class="st0" d="M126.6,45c0.5-1.1,1.5-1.7,3-1.7c0.9,0,1.6,0.2,2,0.7c0.2,0.2,0.4,0.5,0.4,0.9c0.1,0.4,0.1,0.9,0.1,1.5v4.9
			c0,0.5,0.1,0.8,0.3,1c0.2,0.2,0.5,0.3,0.9,0.3v0.4c-1.3,0-2.1-0.1-2.4-0.1c-0.4,0-1.2,0-2.4,0.1v-0.4c0.4,0,0.6-0.1,0.8-0.3
			c0.1-0.2,0.2-0.5,0.2-1v-5.6c0-0.5-0.1-0.9-0.2-1.1c-0.2-0.3-0.5-0.4-0.9-0.4c-0.5,0-0.9,0.2-1.3,0.6c-0.3,0.4-0.5,0.9-0.5,1.5
			v5.1c0,0.5,0.1,0.8,0.2,1c0.1,0.2,0.4,0.3,0.8,0.3v0.4c-1.2,0-1.9-0.1-2.3-0.1c-0.4,0-1.2,0-2.5,0.1v-0.4c0.4,0,0.7-0.1,0.9-0.3
			c0.2-0.2,0.3-0.5,0.3-1V40.9c0-0.6-0.1-1-0.3-1.2c-0.2-0.3-0.5-0.4-0.9-0.4v-0.4c0.4,0,0.8,0.1,1.1,0.1c1.1,0,1.9-0.1,2.7-0.3V45z
			"/>
		<path class="st0" d="M142.7,44c0.2,0.2,0.4,0.5,0.4,0.9c0.1,0.4,0.1,0.9,0.1,1.5v4.9c0,0.5,0.1,0.8,0.3,1c0.2,0.2,0.5,0.3,0.9,0.3
			v0.4c-1.2,0-2-0.1-2.4-0.1c-0.4,0-1.2,0-2.4,0.1v-0.4c0.4,0,0.6-0.1,0.8-0.3c0.1-0.2,0.2-0.5,0.2-1v-5.6c0-0.5-0.1-0.9-0.2-1.1
			c-0.2-0.3-0.5-0.4-0.9-0.4c-0.5,0-0.9,0.2-1.3,0.6c-0.4,0.4-0.5,0.9-0.5,1.5v5.1c0,0.5,0.1,0.8,0.2,1c0.1,0.2,0.4,0.3,0.8,0.3v0.4
			c-1.1,0-1.9-0.1-2.3-0.1c-0.4,0-1.2,0-2.5,0.1v-0.4c0.4,0,0.7-0.1,0.9-0.3c0.2-0.2,0.3-0.5,0.3-1v-5.7c0-0.6-0.1-1-0.3-1.2
			c-0.2-0.3-0.5-0.4-0.9-0.4v-0.4c0.4,0,0.8,0.1,1.1,0.1c1.1,0,2-0.1,2.7-0.3V45c0.5-1.1,1.5-1.7,3-1.7
			C141.7,43.3,142.3,43.5,142.7,44z"/>
		<path class="st0" d="M152.9,50.2l0.3,0.1c-0.2,0.8-0.7,1.5-1.3,2c-0.6,0.6-1.4,0.8-2.3,0.8c-1.3,0-2.3-0.4-3.1-1.2
			c-0.8-0.8-1.1-2-1.1-3.6c0-1.6,0.4-2.9,1.2-3.8c0.8-0.9,1.9-1.3,3.2-1.3c2.3,0,3.4,1.3,3.4,4h-5.1c0,0.2,0,0.5,0,0.9
			c0,0.8,0.1,1.5,0.3,2c0.2,0.5,0.5,0.9,0.9,1.2c0.4,0.2,0.7,0.4,1.2,0.4C151.5,51.7,152.3,51.2,152.9,50.2z M148.6,44.5
			c-0.3,0.5-0.5,1.4-0.5,2.5h2.9c0-1-0.1-1.7-0.3-2.4c-0.2-0.6-0.5-0.9-1-0.9C149.3,43.7,148.9,43.9,148.6,44.5z"/>
		<path class="st0" d="M161.7,43.8c0.3,0.3,0.4,0.7,0.4,1.2c0,0.4-0.1,0.8-0.4,1.1c-0.3,0.3-0.6,0.4-1,0.4c-0.4,0-0.7-0.1-1-0.3
			c-0.2-0.2-0.4-0.5-0.4-0.8c0-0.6,0.3-1.1,0.8-1.4c0,0-0.1,0-0.2,0c-0.1,0-0.2,0-0.3,0c-0.5,0.1-0.9,0.4-1.2,0.8
			c-0.3,0.5-0.5,1-0.5,1.5v4.8c0,0.6,0.1,0.9,0.4,1.2c0.3,0.2,0.7,0.3,1.3,0.3v0.4c-0.2,0-0.3,0-0.4,0c-1.2,0-2.1-0.1-2.5-0.1
			c-0.3,0-1.1,0-2.2,0.1c-0.1,0-0.2,0-0.4,0v-0.4c0.4,0,0.7-0.1,0.9-0.3c0.2-0.2,0.3-0.5,0.3-1v-5.7c0-0.6-0.1-1-0.3-1.2
			c-0.2-0.3-0.5-0.4-0.9-0.4v-0.4c0.4,0,0.8,0.1,1.1,0.1c1.1,0,2-0.1,2.7-0.3V45c0.2-0.5,0.6-0.9,1-1.3c0.4-0.3,0.9-0.5,1.5-0.5
			C161,43.3,161.4,43.4,161.7,43.8z"/>
	</g>
	<g>
		<circle class="st0" cx="39" cy="39" r="39"/>
		<path class="st1" d="M32.8,27.2c1.6,0,3.3,0,5,0c1.7,0.1,3.4,0.2,5.2,0.3c1.8,0.2,3.5,0.4,5.3,0.8c0.4,0.1,0.9,0.2,1.3,0.3
			c0.5,0.1,0.9,0.3,1.4,0.4c0.5,0.2,0.9,0.4,1.4,0.6c0.4,0.2,0.9,0.5,1.3,0.8l0.8,0.5l-0.2,0.5c-0.8,1.9-0.7,0.9-0.9,1.2
			c0,0-0.1,0-0.1,0l-0.1,0l0,0l0,0l0,0l-0.1,0l-0.1,0l-0.3,0l-0.5,0c-0.3,0-0.6,0.1-1,0.1c-0.6,0.1-1.3,0.1-1.9,0.2
			c-1.3,0.1-2.5,0.2-3.8,0.4c-2.5,0.3-5.1,0.6-7.5,1c-2.5,0.4-4.9,0.9-7.2,1.5c-1.1,0.3-2.3,0.7-3.3,1.1c-0.1,0.1-0.3,0.1-0.4,0.2
			c-0.1,0-0.1,0-0.1,0l0,0c-0.1,0-0.1,0.1-0.1,0.1c-0.1,0.1-0.2,0.1-0.2,0.2c-0.1,0.1-0.1,0.1-0.1,0.2c0,0,0,0,0,0c0,0,0,0,0,0
			c0,0,0.1,0,0.1,0c0.1,0,0.1,0,0.2,0c0.1,0,0.2,0,0.3-0.1l0,0l0,0l0,0l0,0c0,0,0,0,0,0c0.2,0,0.4,0,0.6-0.1c0.4,0,0.8-0.1,1.2-0.1
			c0.2,0,0.4,0,0.6,0l0.3,0l0.3,0c0.4,0,0.8,0,1.1-0.1c1.5-0.1,3.1-0.2,4.7-0.3c1.6-0.1,3.2-0.1,4.7-0.1c1.6,0,3.2,0,4.8,0.2
			c1.6,0.1,3.2,0.3,4.8,0.5c1.6,0.2,3.2,0.6,4.8,1.1c0.8,0.2,1.6,0.5,2.4,0.9c0.2,0.1,0.4,0.2,0.6,0.3l0.3,0.1l0.1,0l0.1,0
			c0,0,0,0,0.1,0l0.3,0.1l0.5,0.3c0.2,0.1,0.3,0.2,0.5,0.3c0.3,0.2,0.6,0.4,0.9,0.6c0,0,0.1,0.1,0.1,0.1l0.1,0.1l0.1,0.2l0.1,0.2
			l0,0l0,0c0,0,0,0,0,0l0,0.1l0.1,0.4l0,0l0,0l0,0c0,0,0,0.1,0,0.1c0,0.1,0,0.2,0,0.2c0,0.3-0.1,0.6-0.2,0.9
			c-0.1,0.3-0.3,0.5-0.5,0.8c-0.4,0.5-1.1,0.8-1.8,1.1c-0.1,0-0.2,0.1-0.3,0.1c-0.1,0-0.2,0.1-0.3,0.1c-0.2,0-0.4,0.1-0.6,0.1
			l-0.3,0c-0.1,0-0.1,0-0.2,0c-0.1,0-0.3,0-0.4,0c-0.5,0-0.9,0.1-1.3,0.1c-0.4,0-0.8,0.1-1.2,0.1c-0.8,0.1-1.6,0.2-2.4,0.3
			c-3.1,0.4-6.2,1.1-9.3,1.9c0-0.1,0.3-0.2,0.5-0.4c0.2-0.1,0.2-0.2-0.6,0c-0.4,0.1-0.7,0.2-1.1,0.3c-0.3,0.1-0.6,0.2-0.9,0.2
			c-0.3,0.1-0.6,0.1-0.8,0.2c-0.3,0.1-0.5,0.1-0.7,0.2c-0.9,0.2-1.4,0.4-1.8,0.4c-0.8,0.1-0.8,0-0.9-0.1c0,0,0.3-0.1,0.7-0.3
			c0.2-0.1,0.4-0.2,0.7-0.2c0.1,0,0.2-0.1,0.4-0.1c0.1,0,0.2-0.1,0.4-0.1c0.9-0.3,1.7-0.5,0.9-0.4c0.3-0.1,0.6-0.2,0.9-0.3
			c0.3-0.1,0.6-0.2,0.9-0.3c0.6-0.2,1.3-0.4,1.9-0.5c0.3-0.1,0.6-0.2,1-0.3c0.3-0.1,0.6-0.2,0.9-0.2c0.3-0.1,0.6-0.1,0.9-0.2
			c0.3-0.1,0.5-0.1,0.8-0.2c1-0.2,1.6-0.4,1.8-0.4c0.1,0,0,0-0.2,0c-0.2,0-0.6,0.1-1.2,0.2c-0.2,0-0.5,0.1-0.8,0.1
			c-0.3,0.1-0.7,0.1-1.1,0.2c-0.4,0.1-0.9,0.2-1.3,0.3c-0.5,0.1-0.9,0.2-1.4,0.4c-0.5,0.1-1,0.3-1.4,0.4c-0.5,0.1-0.9,0.3-1.3,0.4
			c-0.4,0.1-0.8,0.2-1.1,0.3c-0.3,0.1-0.6,0.1-0.8,0.2c-0.8,0.2-0.4-0.1-0.1-0.3c0.2-0.1,0.3-0.2,0.4-0.3c0-0.1-0.1-0.1-0.5,0
			c-0.4,0.1-0.8,0.3-1.4,0.5c-0.5,0.2-1.1,0.4-1.6,0.6c-0.6,0.2-1.1,0.4-1.6,0.6c-0.3,0.1-0.5,0.2-0.7,0.3c-0.2,0.1-0.4,0.2-0.6,0.2
			c-1.5,0.5,1.3-1-0.1-0.4c-2.2,0.8-4.8,1.9-7.5,3.2c-2.7,1.3-5.6,2.7-8.4,4.2c0-0.1-0.4,0.1-0.4,0c0,0,0.1-0.1,0.3-0.3
			c0.3-0.2,0.7-0.4,1.4-0.8c3.4-1.8,6.9-3.5,10.5-5.1c3.6-1.6,7.2-3,11-4.2c1.9-0.6,3.8-1.2,5.7-1.6l0.7-0.2l0.7-0.2
			c0.2-0.1,0.5-0.1,0.7-0.2l0.7-0.2c0.2-0.1,0.5-0.1,0.7-0.1l0.7-0.1c0.5-0.1,1-0.2,1.5-0.3c1-0.2,2-0.3,3-0.4
			c0.5-0.1,1-0.1,1.5-0.1c0.5,0,1-0.1,1.5-0.1l0.4,0l0.2,0l0.1,0l0.1,0l0.2,0l0.1,0l0.1,0l0.1,0c0,0,0,0,0.1,0l0,0c0,0,0,0,0,0l0,0
			c0,0,0.1,0,0.1,0c0,0,0.1,0,0.1-0.1c0,0,0,0,0,0c0,0,0,0,0,0l0,0c0,0,0,0,0,0c0,0,0,0-0.1,0L56.6,43c-0.2-0.1-0.3-0.1-0.5-0.2
			c-0.6-0.3-1.3-0.5-2-0.7c-1.4-0.4-2.8-0.7-4.3-1c-1.5-0.2-3-0.4-4.5-0.5c-1.5-0.1-3-0.2-4.6-0.2c-1.5,0-3.1,0-4.6,0.1
			c-1.5,0.1-3.1,0.1-4.6,0.2l-1.2,0.1c-0.2,0-0.4,0-0.6,0l-0.3,0l-0.3,0c-0.4,0-0.7,0-1.1,0.1c-0.2,0-0.4,0-0.6,0.1l-0.4,0l-0.6,0.1
			l-1.2,0.2c-0.4,0-0.8,0.1-1.1,0.1c-0.4,0-0.7,0.1-1,0.1c-0.3,0-0.6,0-0.8-0.1l-0.1,0l-0.1,0c0,0-0.1,0-0.1-0.1
			c-0.1,0-0.2-0.1-0.2-0.1c-0.1,0-0.1-0.1-0.2-0.1c-0.1,0-0.1-0.1-0.2-0.1c0-0.1-0.1-0.1-0.1-0.2c0-0.1-0.1-0.1-0.1-0.2
			c0,0,0-0.1,0-0.1l0,0l0,0c0,0,0,0,0,0l0,0c0-0.1,0-0.1-0.1-0.2c0-0.1-0.1-0.2-0.1-0.3c0-0.2,0.1-0.4,0.1-0.6
			c0-0.2,0.1-0.4,0.2-0.5c0.1-0.4,0.3-0.7,0.6-1.1c0.3-0.4,0.6-0.7,1-1.1c0.4-0.4,0.9-0.7,1.5-1c0.3-0.2,0.6-0.3,0.9-0.4
			c0.1-0.1,0.3-0.1,0.4-0.2l0.3-0.1c0.3-0.1,0.7-0.3,1-0.4c0.7-0.2,1.3-0.5,2-0.7c1.3-0.4,2.6-0.7,4-1c1.3-0.3,2.7-0.5,4-0.8
			c2.7-0.5,5.3-0.8,8-1.1c1.3-0.2,2.7-0.3,4-0.4l2-0.2l1-0.1l0.5,0l0.2,0l0.1,0l0,0l0,0l0,0l0,0.3l0.1,0.5l0,0.2l0,0.2
			c0,0.1,0,0.1,0,0.2c0,0,0,0.1,0,0.1c0,0,0,0.1,0,0.1c0,0,0,0,0,0L52,33c-0.4-0.3-0.8-0.5-1.3-0.7c-0.5-0.2-1-0.4-1.6-0.6
			c-1.1-0.3-2.2-0.6-3.4-0.8c-2.3-0.4-4.7-0.6-7.2-0.7c-1.2-0.1-2.4-0.1-3.6-0.1c-0.6,0-1.2,0-1.8,0l-0.9,0l-0.9,0l-0.9,0l-0.9,0
			l-1.9,0c-0.6,0-1.2,0-1.7-0.1c-0.5-0.1-0.8-0.2-1.1-0.3l-0.1,0l-0.1,0c0,0-0.1,0-0.1,0c0,0-0.1,0-0.1,0c0,0-0.1-0.1-0.1-0.1
			c0,0-0.1-0.1-0.1-0.1c-0.1-0.1-0.1-0.1-0.2-0.2c-0.1-0.1-0.1-0.2-0.2-0.3c-0.1-0.1-0.1-0.2-0.2-0.3c-0.1-0.1-0.1-0.4-0.1-0.5
			c0,0,0-0.1,0-0.1c0,0,0,0,0-0.1l0,0l0,0c-0.6,0.1,0.8-0.1,0.6-0.1l0,0l0-0.1l0-0.2c0.1-0.4,0.1-0.9,0.2-1.3l0.3-0.1l0.3-0.1
			l0.5-0.2l1.1-0.5l0.3-0.1c0.1,0,0.2-0.1,0.3-0.1l0.6-0.2l1.2-0.5l0.6-0.2c0.1,0,0.2-0.1,0.3-0.1l0.3-0.1l0.6-0.2l0.3-0.1l0.3-0.1
			l0.6-0.2c1.7-0.5,3.4-1,5.2-1.4c3.5-0.7,7-1.1,10.6-1.1c0.8,0,1.5,0.1,2,0.1c0.1,0,0.2,0,0.3,0c0.1,0,0.2,0,0.3,0
			c0.1,0,0.2,0,0.2,0c0,0,0.1,0,0.1,0c0,0,0.1,0,0.1,0c0.2,0,0.2,0.1,0.2,0.1c0,0-0.1,0-0.2,0c-0.1,0-0.2,0-0.4,0
			c-0.5,0-1.4,0-2.5,0c-0.5,0-1.1,0-1.7,0.1c-0.6,0-1.2,0.1-1.8,0.1c0.8-0.1,1.2-0.1,1.6,0c0.4,0,0.8,0,1.6,0c0,0-0.2,0.1-0.6,0.2
			c-0.4,0.1-1,0.1-1.8,0.2c-0.8,0.1-1.8,0.2-3,0.4c-1.2,0.2-2.6,0.4-4.1,0.7c1.6-0.3,3.1-0.5,4.7-0.7c0.2,0,0.3,0,0.5,0
			c0.1,0,0.2,0,0.2,0c0.1,0,0,0-0.1,0.1c-0.1,0-0.2,0.1-0.4,0.1c-0.1,0-0.2,0.1-0.2,0.1c-0.2,0-0.4,0-0.6,0.1c-0.2,0-0.4,0-0.6,0.1
			c-0.4,0-0.7,0.1-1,0.1c-0.3,0-0.5,0.1-0.7,0.1c-0.2,0-0.3,0.1-0.3,0.1c0,0.1,0,0.2,0,0.3c0.8-0.1,1.9-0.3,3.1-0.4
			c1.2-0.1,2.4-0.2,3.1-0.2c-1.6,0-3.1,0.2-3.1,0.3c0,0.1,0,0.2,0,0.3c-0.2,0-0.4,0-0.6,0.1c-0.2,0-0.4,0.1-0.6,0.1
			c-0.1,0-0.2,0-0.3,0c-0.1,0-0.2,0-0.3,0c-0.2,0-0.5,0.1-0.7,0.1c-0.9,0.1-1.9,0.3-2.8,0.5c-1.9,0.4-3.8,0.9-5.3,1.4l0.1,0.2
			c1.5-0.5,3.4-1,5.3-1.4c1-0.2,1.9-0.4,2.8-0.5c0.2,0,0.5-0.1,0.7-0.1c0.1,0,0.2,0,0.3,0c0.1,0,0.2,0,0.3,0c0.2,0,0.4-0.1,0.6-0.1
			c0.2,0,0.4,0,0.6-0.1c-0.8,0.1-1.2,0.2-1.3,0.3c-0.2,0.1-0.2,0.1-0.2,0.2c-1.2,0.2-2.3,0.4-3.4,0.6c-1.1,0.2-2.3,0.5-3.4,0.8
			l-0.4,0.1l-0.4,0.1c-0.3,0.1-0.6,0.2-0.8,0.3c-0.6,0.2-1.1,0.4-1.7,0.6L31,26.2c-0.1,0-0.1,0-0.2,0.1c-0.1,0-0.2,0.1-0.3,0.1
			c-0.2,0.1-0.4,0.2-0.5,0.3c0.2-0.1,0.5-0.2,0.7-0.3c0.1,0,0.1,0,0.2-0.1l0.5-0.2l0.5-0.2l0.6-0.2c-0.3,0.1-0.5,0.2-0.9,0.4
			c-0.2,0.1-0.3,0.1-0.5,0.2l-0.1,0l0,0l0,0l0,0c0,0,0,0,0,0c0,0,0,0-0.1,0c-0.1,0-0.2,0.1-0.3,0.1c-0.1,0-0.2,0.1-0.3,0.1
			c-0.1,0.1-0.3,0.1-0.4,0.2c0,0-0.1,0-0.1,0.1l0,0l0,0c0,0,0,0,0,0c0,0,0,0,0,0c0,0,0,0,0,0.1c0,0,0.1,0.1,0.1,0.1c0,0,0.1,0,0.1,0
			c0.2,0,0.4,0,0.5,0c0.2,0,0.4,0,0.6,0C31.7,27.2,32.3,27.2,32.8,27.2z"/>
	</g>
</g>
</svg>
