<svg id="logoLight" xmlns="http://www.w3.org/2000/svg" xmlns:xlink="http://www.w3.org/1999/xlink" width="94.248" height="74.251" viewBox="0 0 94.248 74.251">
  <defs>
    <clipPath id="clip-path">
      <rect id="Rechteck_78" data-name="Rechteck 78" width="94.248" height="74.251" fill="none"/>
    </clipPath>
  </defs>
  <g id="Gruppe_35" data-name="Gruppe 35" clip-path="url(#clip-path)">
    <path id="Pfad_212" data-name="Pfad 212" d="M.9,74.178c-.061-.114-.841.148-.895.049s.123-.194.634-.517,1.394-.826,2.819-1.605c6.991-3.656,14.1-7.133,21.392-10.3A238.827,238.827,0,0,1,47.2,53.28c3.814-1.233,7.682-2.351,11.581-3.325l1.467-.38,1.475-.339c.492-.11.979-.232,1.475-.335l1.483-.312c.5-.107.991-.205,1.487-.3L67.656,48c1-.175,1.994-.361,3-.514,2-.323,4.018-.6,6.038-.814q1.517-.167,3.031-.3c1.006-.084,2.017-.16,3-.232l.726-.057.357-.027h.35l.338-.034h.165l.15-.019.3-.038.15-.023h.077a.687.687,0,0,0,.211-.068.273.273,0,0,0,.154-.145.084.084,0,0,0,0-.053h-.046l-.092-.061c-.05-.027-.1-.057-.15-.08l-.626-.312L83.8,44.78a38.785,38.785,0,0,0-4.114-1.522A62.974,62.974,0,0,0,70.852,41.3c-3.019-.468-6.088-.761-9.18-.985s-6.2-.308-9.319-.327-6.246.03-9.376.145-6.269.282-9.434.476l-2.4.137c-.411.023-.818.042-1.271.053h-.561l-.549.023c-.738.038-1.483.1-2.239.164l-1.133.114-.9.1-1.172.145-2.351.3c-.768.1-1.567.2-2.328.274a17.831,17.831,0,0,1-2.128.11A5.933,5.933,0,0,1,14.9,41.8l-.161-.049-.146-.053c-.1-.034-.184-.072-.277-.11a4.788,4.788,0,0,1-.465-.251c-.138-.088-.265-.179-.384-.27a3.362,3.362,0,0,1-.319-.293,3.439,3.439,0,0,1-.284-.331,3.289,3.289,0,0,1-.288-.453,1.115,1.115,0,0,1-.077-.164l-.035-.091v-.023h0v-.042a3.028,3.028,0,0,1-.108-.316c-.061-.217-.146-.418-.215-.628.069-.411.119-.8.192-1.172a7.6,7.6,0,0,1,.315-1.107,8.6,8.6,0,0,1,1.183-2.218,12.149,12.149,0,0,1,2.09-2.165A20.165,20.165,0,0,1,19,30.026c.568-.316,1.152-.616,1.771-.9.3-.145.607-.282.914-.418l.576-.247c.672-.285,1.348-.548,2.02-.8,1.352-.5,2.689-.94,4.049-1.347,2.689-.807,5.4-1.476,8.109-2.07s5.408-1.1,8.116-1.567c5.412-.928,10.832-1.659,16.252-2.283q4.06-.468,8.128-.852l4.06-.38,2.02-.179L76,18.891l.469-.046h.23l.081.54.154.989.073.43.069.38c.023.118.046.232.073.346s.035.179.058.27a1.527,1.527,0,0,0,.058.205.2.2,0,0,0,.05.1L75.4,24.826a15.94,15.94,0,0,0-2.72-1.45,29.283,29.283,0,0,0-3.184-1.141,56.673,56.673,0,0,0-6.941-1.541,128.987,128.987,0,0,0-14.6-1.423c-2.462-.122-4.936-.19-7.41-.224-1.279-.034-2.512-.034-3.757-.034H33l-1.74.027-1.894.034-3.8.084a23.574,23.574,0,0,1-3.457-.11,7.61,7.61,0,0,1-2.247-.578l-.2-.091-.177-.1-.165-.091c-.05-.034-.108-.065-.154-.1a3.041,3.041,0,0,1-.273-.194c-.092-.065-.169-.137-.25-.205a4.151,4.151,0,0,1-.426-.434,4.075,4.075,0,0,1-.384-.51,4.463,4.463,0,0,1-.346-.7,4.281,4.281,0,0,1-.211-1.084v-.54c-1.179.145,1.606-.217,1.321-.183l.031-.19.061-.38c.15-.886.3-1.765.446-2.644l.549-.255.561-.247,1.122-.5,2.236-1,.561-.247c.184-.084.384-.167.576-.247l1.21-.476,2.416-.947,1.21-.476L30.2,6.4l.549-.19,1.283-.445.618-.221.645-.209,1.275-.4c3.457-1.088,6.96-2.02,10.506-2.766A96.251,96.251,0,0,1,66.75.009c1.69.049,3.015.152,4.026.263l.7.084.588.088c.177.027.338.057.48.084l.207.042.207.042c.384.1.472.156.361.183a1.734,1.734,0,0,1-.327,0L72.258.766C71.148.732,69.35.686,67.2.739c-1.076.019-2.232.08-3.434.145s-2.439.175-3.672.3A18.906,18.906,0,0,1,63.4,1.112c.83.049,1.659.1,3.323.061,0,.1-.423.2-1.248.316s-2.059.247-3.7.434-3.668.415-6.1.761-5.239.841-8.435,1.491c3.2-.635,6.419-1.1,9.664-1.423.407-.027.714-.034.937-.03a2.5,2.5,0,0,1,.446.03c.154.034.058.1-.138.171s-.5.156-.745.243-.442.175-.434.24l-1.2.122-1.152.137c-.768.088-1.456.2-2.055.289s-1.095.183-1.44.259-.542.129-.538.16l.088.517c1.583-.27,3.972-.6,6.369-.833s4.809-.358,6.411-.38a35.029,35.029,0,0,0-6.4.521l.054.521-1.225.145-1.287.164-.665.084-.676.1c-.457.065-.922.126-1.387.2-1.874.285-3.841.628-5.8,1.023A86.891,86.891,0,0,0,35.29,9.33l.123.38c3.046-.921,6.876-2,10.755-2.842,1.944-.415,3.895-.784,5.762-1.084.465-.076.926-.137,1.379-.205l.672-.1.665-.084,1.283-.16,1.222-.122a17.713,17.713,0,0,0-2.743.517c-.384.129-.384.228-.35.358q-3.522.51-7.01,1.2c-2.328.468-4.648.989-6.937,1.617l-.86.228-.857.251c-.569.167-1.152.331-1.709.506-1.129.38-2.262.719-3.376,1.141l-.837.3c-.123.049-.227.088-.33.133-.207.088-.411.175-.6.263a9.347,9.347,0,0,0-.991.529c.5-.205.995-.407,1.5-.59.127-.049.25-.1.384-.141l.945-.331,1.122-.38,1.125-.38c-.515.232-1.11.468-1.755.742-.327.137-.665.274-1.022.415l-.131.053-.069.027h-.031l-.085.042-.138.072c-.188.1-.384.186-.561.278s-.384.179-.592.27l-.891.38-.273.122h-.054a.205.205,0,0,1,0,.068.291.291,0,0,0,0,.141.306.306,0,0,0,.2.167,1.161,1.161,0,0,0,.254.061,9.308,9.308,0,0,0,1.095.042h1.152l3.519.008c3.311-.049,6.7-.038,10.156.068s6.976.308,10.552.662A89.015,89.015,0,0,1,67.81,15.642c.914.205,1.832.434,2.75.7s1.84.548,2.762.883a29.777,29.777,0,0,1,2.754,1.141,19.09,19.09,0,0,1,2.716,1.564l1.563,1.084-.434,1.065c-1.536,3.766-1.51,1.777-1.778,2.465l-.242.072-.111.027h-.234l-.192.023-.288.034-.519.049-.991.088L73.606,25l-3.9.342c-2.6.24-5.2.5-7.786.784C56.74,26.7,51.592,27.371,46.553,28.2a142.827,142.827,0,0,0-14.7,3.173,61.421,61.421,0,0,0-6.753,2.26l-.768.335-.181.084-.077.042a3.036,3.036,0,0,0-.292.164,2.258,2.258,0,0,0-.476.38.882.882,0,0,0-.254.43.555.555,0,0,0,0,.08c0,.023,0,.057.027.072a.477.477,0,0,0,.207,0,1.886,1.886,0,0,0,.384-.061l.672-.137h.184l1.214-.152c.81-.084,1.629-.156,2.458-.205.415-.027.834-.049,1.256-.065h.565l.557-.03c.768-.042,1.536-.1,2.3-.145,3.142-.213,6.338-.411,9.545-.544s6.434-.205,9.676-.2,6.5.1,9.764.3,6.53.529,9.826,1.031A68.568,68.568,0,0,1,81.511,37.2a45,45,0,0,1,4.844,1.784c.384.175.8.38,1.195.548l.592.3.154.076.111.057.123.065.511.289,1.022.578c.334.2.641.418.964.624.657.411,1.221.864,1.817,1.3.085.053.181.107.257.16l.142.194.284.38.284.38.073.1.035.049a.227.227,0,0,1,0,.046l.054.179.219.727.027.091v.023a.7.7,0,0,0,.023.2,4.051,4.051,0,0,1,0,.483,4.741,4.741,0,0,1-.449,1.834,6.009,6.009,0,0,1-1.072,1.552,9.038,9.038,0,0,1-3.707,2.218c-.184.072-.384.122-.58.179s-.384.114-.588.164c-.407.088-.807.183-1.214.259l-.511.08c-.119.023-.25.034-.384.053-.25.03-.511.065-.73.08-.926.091-1.752.141-2.589.205s-1.644.122-2.458.19q-2.435.205-4.836.51A136.818,136.818,0,0,0,56.263,57c-.038-.129.684-.491,1.029-.734s.311-.38-1.241-.023l-2.178.533c-.684.164-1.314.339-1.921.483L50.3,57.67l-1.417.38c-1.748.426-2.919.708-3.718.848-1.594.278-1.682.034-1.771-.213a4.793,4.793,0,0,1,1.341-.578l1.344-.468.73-.247.73-.232c1.921-.616,3.457-1.1,1.874-.738.572-.186,1.179-.361,1.794-.548l1.9-.571c1.291-.38,2.616-.761,3.926-1.1.657-.175,1.3-.361,1.94-.517l1.867-.476c.6-.152,1.187-.285,1.74-.418s1.079-.266,1.567-.38c1.959-.453,3.338-.761,3.622-.848.146-.053,0-.057-.446,0s-1.264.171-2.451.38c-.384.053-.953.133-1.606.263s-1.421.285-2.259.468-1.74.411-2.689.639-1.921.491-2.889.761l-2.8.788c-.93.27-1.825.529-2.65.761s-1.575.457-2.22.632" transform="translate(0 0)" fill="#c8c8c8"/>
  </g>
</svg>
